<svg xmlns="http://www.w3.org/2000/svg" direction="ltr" width="197.37651821862346" height="176" viewBox="2184.968365406041 -231 197.37651821862346 176" stroke-linecap="round" stroke-linejoin="round" data-color-mode="light" class="tl-container tl-theme__force-sRGB tl-theme__light" style="background-color: transparent;"><defs/><g transform="matrix(1, 0, 0, 1, 2184.9684, -231)" opacity="1"><g data-lovart-layer-name="SVG 2"><g transform="scale(0.7125506072874495, 0.7125506072874493)"><g>
<g xmlns="http://www.w3.org/2000/svg" stroke-width="2.00" fill="none" stroke-linecap="butt">
<path stroke="#ede5df" d="M 74.97 16.30   Q 72.63 19.03 69.42 18.38   A 1.47 1.47 0.0 0 0 67.96 20.72   C 71.32 25.15 74.92 24.52 80.95 24.96   C 90.31 25.64 97.00 32.78 95.96 42.27   C 95.20 49.21 85.85 54.70 79.74 56.70   Q 73.78 58.65 68.70 60.11   Q 63.10 61.73 60.51 63.50   C 54.45 67.66 49.62 73.88 55.68 80.90   A 0.64 0.60 -1.8 0 0 55.85 81.05   L 61.80 84.63   A 1.32 1.13 -4.4 0 1 61.95 84.74   Q 64.63 87.03 66.52 90.32   A 4.11 4.11 0.0 0 1 67.06 92.73   Q 66.52 99.14 61.84 103.37   A 0.53 0.52 49.4 0 1 61.08 103.31   C 58.47 100.12 60.78 96.78 59.67 93.01   C 57.82 86.76 50.81 84.12 47.22 81.64   Q 39.09 76.03 41.89 66.84   C 43.22 62.50 47.29 60.46 51.11 58.20   C 56.06 55.27 62.24 54.00 68.15 52.22   C 71.32 51.27 73.27 50.18 77.23 48.47   A 3.62 3.38 -73.5 0 0 77.91 48.07   Q 82.29 44.77 81.69 39.02   C 81.30 35.24 77.67 32.86 74.21 32.05   Q 69.61 30.98 65.13 30.05   Q 62.33 29.46 62.06 27.92   A 0.61 0.61 0.0 0 0 61.50 27.43   Q 59.64 27.34 58.10 26.02   A 1.84 1.81 -75.4 0 1 57.51 24.99   L 56.92 21.92"/>
<path stroke="#ede5df" d="M 56.75 19.22   C 57.74 12.83 66.78 10.27 70.88 8.33   Q 71.93 7.83 75.99 6.59   Q 77.96 5.99 81.12 4.82   Q 84.90 3.42 85.74 0.96"/>
<path stroke="#c6a28d" d="M 74.81 105.52   C 73.92 106.47 72.41 105.67 71.88 107.46"/>
<path stroke="#d4b9ab" d="M 71.88 107.46   Q 71.33 107.76 70.87 107.54   A 0.53 0.50 9.1 0 1 70.57 107.15   Q 70.43 106.10 69.38 106.23   Q 65.76 106.64 62.08 106.14   A 1.31 1.29 32.5 0 0 61.23 106.32   Q 60.31 106.89 60.11 108.21"/>
<path stroke="#d3c4bd" d="M 60.11 108.21   Q 60.18 109.11 59.85 109.41   Q 59.31 109.90 58.91 109.02   Q 58.60 108.34 58.67 107.71   A 0.66 0.65 -79.3 0 0 58.20 107.02   C 55.76 106.34 53.02 107.20 50.74 107.93"/>
<path stroke="#c6a28d" d="M 50.74 107.93   Q 48.25 107.64 49.56 107.36"/>
<path stroke="#856354" stroke-opacity="0.996" d="M 71.09 109.78   L 69.94 110.80"/>
<path stroke="#b68368" stroke-opacity="0.996" d="M 69.94 110.80   L 62.98 110.68"/>
<path stroke="#856354" stroke-opacity="0.996" d="M 62.98 110.68   Q 60.80 110.20 60.06 111.20   A 0.66 0.66 0.0 0 0 59.96 111.79   L 61.92 118.14   A 0.70 0.70 0.0 0 1 60.96 118.99   Q 56.58 116.98 54.55 113.00"/>
<path stroke="#c3a598" stroke-opacity="0.996" d="M 54.55 113.00   Q 56.04 112.99 55.64 111.58   A 0.78 0.77 -6.9 0 1 56.41 110.60   L 59.38 110.69   A 0.84 0.84 0.0 0 0 60.21 110.05   Q 60.41 109.23 60.11 108.21"/>
<path stroke="#846f66" stroke-opacity="0.996" d="M 54.55 113.00   Q 53.60 111.50 52.59 111.27"/>
<path stroke="#c6a28d" d="M 78.18 127.64   L 78.50 127.03   A 0.46 0.46 0.0 0 0 78.12 126.35   Q 72.65 126.14 68.39 127.52   A 2.87 2.81 -52.8 0 1 67.45 127.66   L 48.61 127.11   A 0.39 0.37 -61.8 0 0 48.34 127.20   Q 47.69 127.76 49.00 128.61"/>
<path stroke="#9f5f3d" d="M 49.00 128.61   Q 48.84 128.37 48.18 128.57"/>
<path stroke="#8d5738" d="M 48.18 128.57   Q 43.90 128.10 38.19 126.10   Q 31.97 123.91 28.86 118.29"/>
<path stroke="#b48e7a" stroke-opacity="0.996" d="M 50.74 107.93   Q 50.95 107.87 51.17 107.97   Q 51.35 108.05 51.44 108.29   Q 51.93 109.64 52.59 111.27"/>
<path stroke="#774d36" stroke-opacity="0.996" d="M 52.59 111.27   C 48.70 112.01 39.59 114.15 37.25 117.50   A 2.58 2.20 40.7 0 0 37.72 120.55   C 40.96 123.79 49.29 124.65 54.01 124.92   C 64.71 125.55 76.71 125.13 87.09 121.55   Q 90.68 120.32 92.86 117.85   A 2.51 2.12 -44.3 0 0 93.15 114.89   C 91.85 113.23 90.14 113.00 88.41 112.40   Q 81.51 110.00 74.30 110.32   A 3.07 2.84 47.2 0 1 73.66 110.27   L 71.09 109.78"/>
<path stroke="#b68368" stroke-opacity="0.996" d="M 71.09 109.78   Q 71.99 108.67 71.88 107.46"/>
<path stroke="#774d36" stroke-opacity="0.996" d="M 62.98 110.68   Q 65.06 110.56 64.77 113.97   A 1.89 1.88 17.5 0 0 65.71 115.76   L 70.17 118.34   A 0.50 0.49 -84.5 0 0 70.88 117.75   Q 69.75 114.28 69.94 110.80"/>
<path stroke="#673820" d="M 178.01 128.33   Q 180.37 121.60 177.23 116.29   A 0.86 0.86 0.0 0 0 175.63 116.77   C 175.85 121.85 173.75 125.44 170.53 130.48   A 35.29 34.86 -17.6 0 0 167.82 135.62   C 164.30 143.82 160.58 151.49 155.54 158.05   C 153.28 161.01 151.98 164.23 150.28 167.26   A 17.73 17.47 81.5 0 1 147.82 170.64   Q 143.31 175.51 142.27 176.75   Q 138.37 181.41 134.19 185.83   C 129.41 190.88 123.50 195.16 118.85 198.87   Q 117.50 199.95 115.19 203.42   A 0.67 0.66 33.8 0 1 114.26 203.60   Q 112.24 202.23 109.28 203.70   Q 98.50 209.07 85.00 211.26   C 68.85 213.87 47.98 206.99 39.62 191.54   A 0.10 0.10 0.0 0 1 39.77 191.42   C 44.37 195.80 49.21 201.49 56.25 204.26   A 0.68 0.67 74.8 0 0 56.91 203.10   Q 53.68 200.54 49.24 197.21   Q 40.59 190.75 39.81 179.52   A 0.42 0.42 0.0 0 1 40.61 179.33   Q 43.89 187.37 50.87 192.30   A 2.47 2.37 1.6 0 1 51.46 192.90   Q 52.79 194.87 54.55 195.95   A 0.50 0.50 0.0 0 0 55.29 195.67   Q 55.54 194.79 55.47 194.72   A 1.70 1.19 -24.5 0 1 56.76 192.53   Q 60.41 191.64 64.07 193.78   Q 68.97 196.65 72.69 197.85   A 0.52 0.51 83.8 0 0 73.29 197.10   L 68.89 189.48   A 0.82 0.81 52.3 0 1 69.01 188.50   L 72.47 185.05   A 0.52 0.51 -41.3 0 1 73.25 185.10   L 77.85 191.27   A 0.76 0.75 -27.2 0 0 78.68 191.53   C 82.00 190.49 84.85 187.51 86.74 185.97   C 91.45 182.13 92.30 176.36 89.18 171.07   A 2.47 2.46 -14.3 0 0 87.12 169.85   L 85.14 169.79   A 1.73 1.70 81.9 0 1 83.55 168.58   L 81.92 163.29   A 0.66 0.66 0.0 0 1 82.88 162.52   C 84.91 163.70 87.63 165.03 88.93 162.28   A 0.22 0.22 0.0 0 0 88.79 161.98   Q 88.68 161.94 88.58 161.84   A 0.63 0.62 32.1 0 1 88.43 161.22   C 88.91 159.63 89.04 158.18 88.03 156.67   Q 86.59 154.48 85.57 151.56   A 0.57 0.57 0.0 0 1 86.34 150.85   Q 89.65 152.27 93.29 150.92   A 0.66 0.66 0.0 0 0 93.29 149.69   Q 88.01 147.73 84.95 143.37   A 0.75 0.74 16.3 0 0 83.65 144.08   Q 85.07 147.52 83.90 151.53   A 0.68 0.68 0.0 0 1 82.65 151.66   Q 78.56 144.09 81.80 137.84   A 2.39 2.38 34.8 0 0 81.28 134.96   C 79.05 132.97 76.97 132.24 73.90 131.65   Q 69.86 130.88 66.02 129.50"/>
<path stroke="#9f8374" d="M 66.02 129.50   L 78.18 127.64"/>
<path stroke="#804d31" stroke-opacity="0.996" d="M 78.18 127.64   Q 85.03 126.45 92.94 123.18   Q 99.32 120.55 100.97 114.41"/>
<path stroke="#be9681" d="M 61.94 129.71   Q 55.16 130.08 49.00 128.61"/>
<path stroke="#5d3825" d="M 25.84 142.94   L 25.96 138.76"/>
<path stroke="#864b2c" d="M 48.18 128.57   C 46.58 130.02 44.01 131.49 43.01 133.10   Q 40.61 136.95 40.68 142.26   Q 40.87 157.00 41.58 161.22   C 42.65 167.60 45.23 176.36 49.10 181.37   A 1.46 1.45 80.1 0 0 49.82 181.88   Q 59.04 184.84 60.81 185.26   C 64.01 186.04 66.67 185.27 68.12 182.32   Q 68.84 180.85 69.14 180.35   A 1.83 1.82 11.3 0 1 70.41 179.51   L 71.54 179.34   A 3.07 3.07 0.0 0 0 74.13 176.66   Q 74.94 169.84 77.49 161.52   Q 78.81 157.21 77.51 151.24   A 7.15 7.04 21.5 0 0 76.35 148.63   C 74.68 146.29 73.20 144.59 71.59 141.78   C 68.77 136.86 66.48 133.20 61.51 131.08   A 0.54 0.53 30.0 0 1 61.29 130.27   Q 61.50 129.99 61.94 129.71"/>
<path stroke="#ac8d7c" d="M 61.94 129.71   Q 63.84 129.15 66.02 129.50"/>
<path stroke="#915e28" d="M 182.46 120.45   Q 179.74 115.90 178.93 114.81   Q 174.89 109.44 169.88 106.04"/>
<path stroke="#dfc092" d="M 175.57 94.53   Q 175.67 94.99 175.61 95.33   A 0.51 0.51 0.0 0 1 175.19 95.75   Q 175.11 95.76 174.97 95.80   A 1.13 1.11 -80.7 0 0 174.30 96.29   L 171.18 101.18   A 3.89 3.86 -28.7 0 0 170.57 103.23   Q 170.55 105.07 169.88 106.04"/>
<path stroke="#a78f83" d="M 169.88 106.04   C 165.83 103.53 163.25 101.69 158.09 100.73"/>
<path stroke="#dfc092" d="M 170.14 91.94   L 165.64 99.83   A 1.38 1.38 0.0 0 1 164.02 100.46   Q 159.87 99.11 155.62 99.43   A 0.17 0.16 -1.9 0 0 155.46 99.59   L 155.45 99.86   A 0.27 0.26 -2.8 0 0 155.75 100.13   Q 157.08 99.95 158.09 100.73"/>
<path stroke="#915e28" d="M 158.09 100.73   Q 155.49 100.87 153.00 101.02   Q 152.13 101.07 151.94 100.27"/>
<path stroke="#875e2d" d="M 188.65 107.37   Q 187.53 107.46 187.28 106.99   Q 183.13 99.09 175.57 94.53"/>
<path stroke="#9e8f88" d="M 175.57 94.53   L 170.14 91.94"/>
<path stroke="#875e2d" d="M 170.14 91.94   Q 168.30 90.99 166.24 90.90"/>
<path stroke="#5a3b2b" stroke-opacity="0.996" d="M 166.24 90.90   C 166.89 89.15 168.73 89.13 169.82 88.54   A 2.24 2.17 2.8 0 0 170.55 87.90   Q 173.35 84.08 176.45 81.27   A 0.35 0.35 0.0 0 1 176.97 81.74   L 172.14 88.34   A 0.94 0.93 51.6 0 0 172.04 89.24   Q 172.54 90.42 173.33 91.09"/>
<path stroke="#846f66" stroke-opacity="0.996" d="M 173.33 91.09   L 177.76 93.69"/>
<path stroke="#5a3b2b" stroke-opacity="0.996" d="M 177.76 93.69   Q 178.89 94.09 179.53 94.95   A 1.16 1.16 0.0 0 0 181.53 94.71   Q 183.45 90.15 186.27 86.23   Q 190.40 80.49 191.22 78.93   Q 193.40 74.76 202.35 65.35   Q 211.84 55.38 215.24 52.90   A 6.05 5.89 0.8 0 0 216.39 51.81   Q 220.41 46.74 225.90 44.75   C 228.46 43.83 230.63 41.88 232.74 41.00   Q 242.17 37.05 251.79 35.74   A 0.68 0.68 0.0 0 0 252.10 34.51   L 251.18 33.83   A 2.34 2.30 57.8 0 0 249.44 33.42   Q 248.03 33.67 246.99 33.32   A 0.62 0.62 0.0 0 1 246.69 32.37   L 247.27 31.57   A 0.52 0.51 -69.9 0 0 246.89 30.75   L 245.06 30.64"/>
<path stroke="#987c6f" stroke-opacity="0.996" d="M 177.76 93.69   C 179.50 90.97 180.99 88.31 183.07 85.70   Q 185.22 82.99 189.25 76.97   Q 192.79 71.69 202.12 61.32   Q 206.37 56.60 210.28 53.67   Q 215.12 50.03 218.98 46.43   A 0.46 0.46 0.0 0 0 218.94 45.72   L 218.92 45.70   A 0.88 0.86 -42.2 0 0 217.92 45.66   Q 202.70 55.29 194.87 64.37   Q 180.12 81.47 176.62 86.62   Q 174.38 89.91 173.33 91.09"/>
<path stroke="#9b6b35" d="M 166.24 90.90   L 160.74 90.85   A 0.98 0.97 19.9 0 0 159.96 91.21   C 159.21 92.14 159.14 93.30 158.52 94.38   Q 156.26 98.34 152.55 99.46"/>
<path stroke="#d19945" d="M 234.47 145.99   Q 232.75 146.23 231.56 147.10   A 1.20 1.19 -14.3 0 0 231.08 147.90   Q 230.73 150.46 229.82 151.61   Q 223.63 159.36 219.17 167.60   Q 218.52 168.81 216.92 169.57   A 1.33 1.31 89.6 0 0 216.27 170.24   L 213.90 175.53"/>
<path stroke="#b98537" stroke-opacity="0.996" d="M 213.90 175.53   L 211.30 178.26   A 0.50 0.50 0.0 0 1 210.45 177.79   L 210.99 175.66   A 1.21 0.76 -50.8 0 0 211.02 175.41   L 211.34 169.05   A 3.33 3.29 64.9 0 1 211.98 167.25   Q 214.51 163.84 214.23 160.07"/>
<path stroke="#b98537" stroke-opacity="0.996" d="M 211.24 162.31   Q 209.97 163.03 210.64 164.72   Q 210.91 165.39 211.58 165.12   Q 212.53 164.72 212.10 163.23"/>
<path stroke="#b98537" stroke-opacity="0.996" d="M 235.20 174.50   Q 223.90 172.52 214.17 178.31   A 4.32 4.07 6.9 0 0 213.52 178.79   Q 210.32 181.66 207.66 183.38   Q 207.34 183.58 206.35 185.07   A 0.24 0.24 0.0 0 0 206.47 185.42   L 206.83 185.54   A 0.47 0.46 -60.6 0 0 207.35 185.39   Q 208.44 184.01 210.16 183.94"/>
<path stroke="#a97223" d="M 225.99 192.58   Q 226.33 193.09 225.66 193.43"/>
<path stroke="#b98537" stroke-opacity="0.996" d="M 225.66 193.43   C 214.81 189.42 204.95 184.42 193.78 190.82   C 190.80 192.53 188.40 194.88 185.71 196.62   A 0.28 0.27 35.1 0 0 185.80 197.12   C 186.19 197.21 186.91 197.15 187.35 196.96   Q 190.04 195.78 192.29 196.87"/>
<path stroke="#a97223" d="M 192.29 196.87   C 192.73 201.46 198.26 201.91 201.83 202.38   A 1.94 1.91 -23.7 0 1 202.67 202.70   L 205.80 204.81"/>
<path stroke="#a36a1e" d="M 205.14 205.37   Q 204.73 204.66 204.23 204.89   Q 203.60 205.20 203.73 205.84   Q 203.84 206.37 204.12 206.79   A 0.49 0.48 68.4 0 1 203.80 207.54   L 202.83 207.70"/>
<path stroke="#b98537" stroke-opacity="0.996" d="M 202.83 207.70   L 196.16 203.93   A 21.65 21.33 68.9 0 0 192.75 202.39   L 186.41 200.18   A 2.31 2.27 54.2 0 0 185.65 200.05   Q 178.88 200.18 177.65 200.59   Q 172.70 202.24 166.89 206.28   A 0.34 0.34 0.0 0 0 166.93 206.86   L 168.69 207.77"/>
<path stroke="#a36a1e" d="M 168.69 207.77   Q 171.40 210.43 174.09 213.19   C 175.26 214.38 176.25 214.61 177.73 214.61   A 3.35 3.35 0.0 0 1 179.51 215.10   L 185.00 218.47"/>
<path stroke="#a6835d" stroke-opacity="0.996" d="M 183.53 218.71   Q 183.68 218.50 183.60 218.25   Q 183.47 217.85 182.96 217.95"/>
<path stroke="#a36a1e" d="M 182.96 217.95   Q 181.36 217.09 178.90 219.55"/>
<path stroke="#b98537" stroke-opacity="0.996" d="M 178.90 219.55   Q 172.69 214.62 171.01 213.51   Q 161.64 207.32 148.88 213.28"/>
<path stroke="#a36a1e" d="M 148.88 213.28   L 149.23 210.94"/>
<path stroke="#b98537" stroke-opacity="0.996" d="M 149.23 210.94   Q 149.21 211.13 149.22 211.28   A 0.40 0.40 0.0 0 0 149.84 211.60   Q 151.14 210.75 151.92 209.49"/>
<path stroke="#a36a1e" d="M 151.92 209.49   L 155.78 209.31   A 2.20 1.87 31.2 0 0 156.28 209.23   C 165.23 206.70 168.23 194.30 169.54 186.48   A 2.03 1.94 43.7 0 0 169.50 185.60   Q 168.73 182.69 171.03 180.99"/>
<path stroke="#c29c65" stroke-opacity="0.996" d="M 171.46 182.09   Q 169.98 184.66 171.65 185.36"/>
<path stroke="#a36a1e" d="M 231.12 158.04   Q 231.17 157.55 231.02 157.32   A 0.43 0.43 0.0 0 0 230.26 157.41   Q 227.99 163.82 223.50 169.16   C 220.80 172.37 218.24 176.25 213.90 175.53"/>
<path stroke="#d19945" d="M 251.26 174.46   Q 249.48 176.37 250.72 178.27"/>
<path stroke="#c28632" d="M 226.30 191.92   Q 227.88 192.40 225.99 192.58"/>
<path stroke="#a36a1e" d="M 225.99 192.58   Q 224.51 191.98 225.28 190.69   A 0.64 0.63 19.1 0 0 224.81 189.73   Q 221.62 189.34 218.27 188.76   Q 216.24 188.40 210.16 183.94"/>
<path stroke="#d19945" d="M 210.16 183.94   L 221.90 183.41"/>
<path stroke="#dab073" d="M 221.90 183.41   Q 223.27 183.89 225.29 182.66"/>
<path stroke="#d19945" d="M 225.29 182.66   L 238.76 178.95   A 3.11 3.01 -49.2 0 1 239.77 178.86   L 243.76 179.17   A 2.30 2.30 0.0 0 0 245.59 178.47   L 245.78 178.28   A 0.75 0.70 25.7 0 0 245.34 177.15   L 235.20 174.50"/>
<path stroke="#a36a1e" d="M 235.20 174.50   L 237.40 174.37   A 0.54 0.54 0.0 0 0 237.89 173.68   C 237.81 173.38 237.00 173.14 236.77 172.40   Q 236.59 171.83 236.45 171.36   A 0.67 0.67 0.0 0 0 235.65 170.89   Q 232.42 171.62 229.15 171.28"/>
<path stroke="#b87d40" d="M 234.96 197.36   L 234.02 197.41"/>
<path stroke="#9e682f" d="M 209.22 205.52   Q 208.76 205.45 208.29 205.54"/>
<path stroke="#e1b878" d="M 195.54 196.58   L 205.33 196.87"/>
<path stroke="#f1cc8d" stroke-opacity="0.996" d="M 225.29 182.66   Q 223.92 181.73 220.94 182.32   A 0.50 0.49 64.3 0 1 220.46 182.15   Q 220.14 181.74 220.58 181.15   A 0.80 0.76 -75.1 0 1 221.07 180.85   L 225.19 180.23   A 0.89 0.89 0.0 0 0 225.23 178.47   Q 223.06 178.03 219.32 178.75   C 217.21 179.16 216.62 180.53 216.66 182.31   A 0.69 0.67 2.4 0 0 217.28 182.97   L 221.90 183.41"/>
<path stroke="#a97223" d="M 189.48 167.11   Q 188.55 167.63 188.81 169.32   Q 189.74 175.43 188.34 180.94   Q 186.45 188.42 185.18 190.98   C 183.20 194.97 179.31 200.05 174.12 199.20   A 1.67 1.67 0.0 0 0 172.58 199.77   L 170.07 202.75   A 0.39 0.39 0.0 0 1 169.44 202.31   C 170.43 200.60 170.72 199.26 170.61 197.13   Q 170.29 191.32 171.65 185.36"/>
<path stroke="#e1b878" d="M 171.65 185.36   Q 172.56 184.54 172.38 182.79"/>
<path stroke="#d19945" d="M 202.83 207.70   Q 204.83 207.94 205.75 208.99   A 0.57 0.57 0.0 0 1 205.30 209.94   Q 200.50 209.71 196.75 210.20   Q 191.73 210.86 188.24 210.52   Q 179.57 209.67 173.12 207.82   A 4.04 3.97 51.5 0 0 171.90 207.67   L 168.69 207.77"/>
<path stroke="#f1cc8d" stroke-opacity="0.996" d="M 162.61 192.84   Q 162.31 192.11 161.85 191.95   Q 161.27 191.73 160.86 192.40   C 159.45 194.69 157.15 196.05 156.00 198.39   Q 154.44 201.58 155.88 204.61"/>
<path stroke="#d8a14b" d="M 225.66 193.43   Q 226.76 193.89 227.16 194.59   A 1.07 1.07 0.0 0 1 226.14 196.18   Q 220.93 195.73 216.75 196.86   Q 212.73 197.94 205.33 196.87"/>
<path stroke="#f1cc8d" stroke-opacity="0.996" d="M 205.33 196.87   Q 206.93 196.26 208.02 194.08   A 1.52 1.51 -70.9 0 0 206.97 191.91   Q 201.38 190.78 198.19 194.28   A 3.32 3.32 0.0 0 1 196.74 195.21   L 195.11 195.71   A 0.32 0.32 0.0 0 0 195.05 196.30   L 195.54 196.58"/>
<path stroke="#d8a14b" d="M 195.54 196.58   L 192.29 196.87"/>
<path stroke="#d19945" d="M 151.92 209.49   L 155.88 204.61"/>
<path stroke="#dab073" d="M 155.88 204.61   L 160.84 197.45   A 3.26 2.94 -20.2 0 0 161.22 196.73   L 162.61 192.84"/>
<path stroke="#d19945" d="M 162.61 192.84   L 167.61 183.55   A 0.32 0.32 0.0 0 0 167.41 183.09   L 166.97 182.97   A 0.51 0.51 0.0 0 0 166.40 183.20   Q 164.74 185.97 161.11 187.53   A 3.32 3.22 13.4 0 0 160.32 188.00   Q 154.90 192.41 151.75 199.44   A 0.39 0.24 76.7 0 0 151.72 199.53   L 150.69 204.60   A 0.69 0.61 -41.4 0 0 150.67 204.76   Q 150.75 208.04 149.23 210.94"/>
<path stroke="#d19945" d="M 148.88 213.28   L 141.88 216.34   A 0.32 0.32 0.0 0 0 141.96 216.95   Q 144.88 217.45 146.33 216.82   A 1.40 1.39 42.4 0 1 147.35 216.78   Q 148.85 217.32 150.64 217.74   Q 151.56 217.95 153.92 218.91   C 162.07 222.22 170.45 221.71 180.49 221.64   A 0.56 0.56 0.0 0 0 181.03 221.22   L 181.11 220.94   A 0.68 0.68 0.0 0 0 180.52 220.09   Q 179.58 220.00 178.90 219.55"/>
<path stroke="#be976b" d="M 182.96 217.95   Q 181.89 217.72 181.33 217.93   Q 180.42 218.28 181.17 219.22   Q 181.91 220.14 183.48 219.89"/>
<path stroke="#be976b" d="M 158.79 228.22   Q 158.34 227.60 157.39 227.59   A 0.53 0.53 0.0 0 0 156.85 228.11   Q 156.84 229.81 158.51 229.51"/>
<path stroke="#aa692f" d="M 161.21 233.17   L 160.28 233.15"/>
<path stroke="#d19945" d="M 32.28 224.82   L 32.37 227.68   A 1.94 1.93 -88.1 0 0 34.10 229.54   Q 36.34 229.77 48.07 231.09   Q 55.45 231.93 61.95 231.75   C 74.60 231.40 85.92 230.96 97.93 228.15   Q 107.99 225.80 116.30 223.43   A 3.19 3.18 38.0 0 1 117.30 223.31   Q 121.77 223.49 124.93 221.97   A 2.36 1.96 -30.0 0 0 126.09 218.84   Q 125.49 218.03 124.49 217.93   Q 123.80 217.87 123.66 217.48   Q 123.54 217.11 123.66 216.47"/>
<path stroke="#c28632" d="M 125.70 214.89   Q 127.58 214.96 128.64 213.07   A 0.39 0.39 0.0 0 1 129.37 213.26   L 129.33 215.20"/>
<path stroke="#d19945" d="M 129.33 215.20   L 129.39 217.88   A 0.43 0.42 80.8 0 0 129.94 218.28   Q 130.82 218.01 131.54 216.67"/>
<path stroke="#c28632" d="M 131.54 216.67   Q 136.09 217.97 139.74 215.23   Q 144.29 211.84 145.97 207.98   Q 147.75 203.89 149.40 199.28   A 3.35 3.33 -34.9 0 0 149.59 198.23   Q 149.67 194.90 150.80 191.59   A 0.44 0.44 0.0 0 1 151.62 191.55   L 151.94 192.26"/>
<path stroke="#dab073" d="M 151.94 192.26   L 151.92 194.58   A 0.43 0.43 0.0 0 0 152.73 194.79   L 155.75 189.44"/>
<path stroke="#a97223" d="M 208.54 155.45   Q 207.91 157.83 208.12 160.27   A 2.11 2.08 27.8 0 0 208.40 161.15   Q 209.86 163.62 209.15 166.93   C 207.74 173.52 206.23 178.93 202.33 184.28   Q 199.53 188.12 195.96 187.29   A 0.86 0.83 -55.7 0 0 195.24 187.44   L 190.46 191.01   A 0.21 0.21 0.0 0 1 190.13 190.77   C 190.85 188.61 191.20 186.98 190.76 184.68   Q 189.95 180.55 191.37 176.31   C 191.84 174.89 190.37 174.20 190.12 172.88   Q 189.90 171.72 190.69 171.19"/>
<path stroke="#d19945" d="M 260.11 149.94   Q 255.58 150.16 250.42 154.38   Q 246.51 157.57 243.61 160.59   Q 242.49 161.76 237.27 164.13   A 3.21 3.14 10.9 0 0 236.44 164.68   L 229.15 171.28"/>
<path stroke="#b98537" stroke-opacity="0.996" d="M 229.15 171.28   L 224.97 172.73   A 0.28 0.27 -84.2 0 1 224.65 172.33   L 231.28 160.84   A 0.66 0.64 49.8 0 0 231.32 160.25   Q 230.89 159.21 231.12 158.04"/>
<path stroke="#d19945" d="M 231.12 158.04   Q 231.35 157.59 232.05 157.44"/>
<path stroke="#d19945" d="M 209.96 208.90   L 209.15 211.09"/>
<path stroke="#b98537" stroke-opacity="0.996" d="M 210.20 155.46   L 208.54 155.45"/>
<path stroke="#d8a14b" d="M 208.54 155.45   Q 206.57 156.43 206.23 155.77"/>
<path stroke="#e1b878" d="M 151.94 192.26   Q 152.39 191.33 151.68 190.46   Q 150.97 189.60 150.55 188.80"/>
<path stroke="#d8a14b" d="M 131.54 216.67   L 135.78 212.32"/>
<path stroke="#e1b878" d="M 135.78 212.32   C 139.79 209.64 141.27 204.91 143.97 201.37   Q 145.15 199.82 145.84 198.10   A 0.72 0.72 0.0 0 0 145.50 197.19   L 145.48 197.18   A 0.76 0.75 29.2 0 0 144.51 197.45   Q 142.64 200.49 137.74 205.24   Q 136.10 206.83 135.88 209.89"/>
<path stroke="#d8a14b" d="M 135.88 209.89   L 133.50 207.41   A 0.38 0.38 0.0 0 0 132.92 207.45   Q 130.31 211.04 129.33 215.20"/>
<path stroke="#c89155" stroke-opacity="0.996" d="M 213.24 212.16   Q 212.66 211.96 212.11 212.22"/>
<path stroke="#f1cc8d" stroke-opacity="0.996" d="M 135.78 212.32   Q 135.37 211.23 135.88 209.89"/>
<path stroke="#846f66" stroke-opacity="0.996" d="M 252.47 32.22   L 255.45 34.98   A 0.18 0.18 0.0 0 0 255.70 34.97   L 255.75 34.91   A 2.00 1.40 42.8 0 0 255.24 32.52   L 254.93 32.24   A 2.00 1.40 42.8 0 0 252.51 31.91   L 252.46 31.97   A 0.18 0.18 0.0 0 0 252.47 32.22"/>
<path stroke="#9b6b35" d="M 181.68 112.42   L 181.88 109.80   A 0.87 0.87 0.0 0 1 182.52 109.03   Q 183.53 108.76 183.92 108.51   Q 184.60 108.09 184.38 107.02   Q 183.20 101.32 178.64 98.99   A 0.98 0.98 0.0 0 0 177.22 99.79   L 177.02 102.31   A 0.91 0.91 0.0 0 1 176.65 102.98   L 173.86 105.07   A 1.05 1.05 0.0 0 0 173.81 106.72   L 180.94 112.73   A 0.45 0.45 0.0 0 0 181.68 112.42"/>
<path stroke="#8f634f" stroke-opacity="0.996" d="M 167.57 107.05   L 163.40 105.11"/>
<path stroke="#703a1f" d="M 163.40 105.11   Q 159.45 103.34 154.67 103.00   A 2.15 2.14 18.8 0 0 152.73 103.95   Q 148.46 110.39 144.90 114.71   C 140.67 119.84 137.83 125.64 133.38 129.95   C 130.75 132.50 129.60 134.83 129.87 138.22   A 1.53 1.52 86.2 0 1 128.43 139.87   Q 120.74 140.27 114.36 142.65   A 1.68 1.68 0.0 0 0 114.39 145.81   L 121.76 148.39   A 0.65 0.65 0.0 0 1 121.74 149.63   L 118.43 150.65   A 1.05 1.05 0.0 0 0 118.06 152.46   L 121.12 155.04   A 1.24 1.23 -62.8 0 1 121.52 156.30   L 120.06 161.83   A 0.84 0.84 0.0 0 0 120.23 162.60   C 122.96 165.95 126.06 164.88 129.57 163.24   Q 132.44 161.89 135.66 163.19   A 2.80 2.78 34.0 0 0 138.64 162.62   L 151.04 150.70   A 1.37 1.34 81.2 0 0 151.34 150.28   C 152.33 148.12 153.62 145.40 155.24 143.45   Q 160.90 136.67 165.05 129.08   Q 166.52 126.39 167.51 123.38   C 168.78 119.54 170.94 116.12 172.54 113.51   A 1.27 1.26 45.3 0 0 172.54 112.18   Q 170.38 108.68 167.57 107.05"/>
<path stroke="#a56f55" d="M 163.40 105.11   Q 156.03 116.51 148.28 127.74   C 146.08 130.92 143.48 135.28 140.32 138.68"/>
<path stroke="#975937" d="M 140.32 138.68   Q 133.68 145.64 124.89 151.12   A 0.86 0.85 49.2 0 0 124.79 152.50   L 129.75 156.68   A 0.71 0.70 47.2 0 0 130.61 156.72   Q 136.79 152.47 141.00 146.20"/>
<path stroke="#a56f55" d="M 141.00 146.20   Q 144.26 142.22 147.47 138.21   Q 150.58 134.32 153.33 129.78   Q 156.27 124.91 159.24 120.06   Q 163.26 113.49 167.57 107.05"/>
<path stroke="#b68368" stroke-opacity="0.996" d="M 141.00 146.20   L 139.36 147.66   A 0.87 0.86 -44.2 0 1 138.20 147.65   Q 136.94 146.49 135.29 145.75   A 0.55 0.55 0.0 0 1 135.09 144.89   L 140.32 138.68"/>
<path stroke="#ae765b" d="M 56.61 161.43   Q 57.17 159.25 58.30 157.49   A 2.99 2.67 -24.6 0 0 58.65 156.69   C 60.00 151.78 61.59 147.81 59.68 142.77   Q 58.85 140.56 60.96 134.38   A 1.67 1.67 0.0 0 0 59.43 132.17   L 53.67 132.01   A 2.24 2.23 6.7 0 0 51.41 133.79   Q 50.19 139.57 50.67 146.69   A 6.11 5.56 50.4 0 1 50.61 147.97   C 49.59 154.08 52.01 156.41 55.39 161.63   A 0.68 0.67 35.6 0 0 56.61 161.43"/>
<path stroke="#e1b878" d="M 178.84 184.15   Q 178.27 183.82 178.25 183.82   A 2.59 2.59 0.0 0 0 176.46 185.66   L 174.28 193.91   A 0.60 0.60 0.0 0 0 175.33 194.43   C 176.16 193.40 177.39 190.23 179.36 189.72   A 1.40 1.38 -82.5 0 0 180.22 189.05   Q 181.62 186.54 181.78 185.75   Q 183.37 177.90 186.84 171.43   A 0.26 0.26 0.0 0 0 186.44 171.11   Q 184.43 172.79 183.77 174.95   C 182.78 178.22 181.46 180.01 180.81 183.21   A 1.36 1.33 -69.8 0 1 178.84 184.15"/>
<path stroke="#e1b878" d="M 207.68 158.86   A 0.59 0.59 0.0 0 0 206.64 158.50   Q 204.35 161.21 203.22 164.55   A 3.30 3.11 72.3 0 1 202.87 165.28   Q 200.81 168.39 198.40 170.25   C 196.88 171.43 195.66 173.18 195.52 174.65   Q 195.17 178.37 194.29 181.59   A 0.89 0.89 0.0 0 0 195.86 182.35   L 200.74 175.68   A 3.10 2.87 -19.6 0 0 201.18 174.84   L 205.54 162.37   A 2.82 2.79 -10.3 0 1 206.41 161.13   Q 207.70 160.09 207.68 158.86"/>
<path stroke="#d19945" d="M 156.71 230.36   Q 155.69 229.95 155.20 229.32   C 147.95 220.14 138.95 215.40 127.88 222.00   A 0.68 0.67 41.5 0 0 127.96 223.19   L 141.50 229.18   A 10.04 9.98 59.0 0 0 144.80 230.01   L 156.58 230.92   A 0.29 0.29 0.0 0 0 156.71 230.36"/>
<path stroke="#f1cc8d" stroke-opacity="0.996" d="M 188.86 206.56   A 0.59 0.59 0.0 0 0 189.19 205.48   Q 185.89 203.35 181.21 203.20   A 2.41 2.41 0.0 0 0 178.87 204.76   L 178.86 204.79   A 1.20 1.19 10.0 0 0 179.97 206.37   L 188.86 206.56"/>
<path stroke="#efd3a6" d="M 164.8961 215.4108   A 2.85 1.82 -3.0 0 0 161.9547 213.7425   A 2.85 1.82 -3.0 0 0 159.2039 215.7092   A 2.85 1.82 -3.0 0 0 162.1453 217.3775   A 2.85 1.82 -3.0 0 0 164.8961 215.4108"/>
<path stroke="#f1cc8d" stroke-opacity="0.996" d="M 143.93 225.66   A 0.60 0.59 -18.1 0 0 144.44 224.66   Q 141.71 221.84 137.73 221.95   A 0.95 0.93 12.2 0 0 136.92 222.46   Q 136.27 223.72 136.38 224.38   A 0.62 0.61 73.1 0 0 137.23 224.84   C 139.63 223.78 141.98 225.40 143.93 225.66"/>
</g>
<path xmlns="http://www.w3.org/2000/svg" fill="#f5f1ed" d="M 74.97 16.30   Q 72.63 19.03 69.42 18.38   A 1.47 1.47 0.0 0 0 67.96 20.72   C 71.32 25.15 74.92 24.52 80.95 24.96   C 90.31 25.64 97.00 32.78 95.96 42.27   C 95.20 49.21 85.85 54.70 79.74 56.70   Q 73.78 58.65 68.70 60.11   Q 63.10 61.73 60.51 63.50   C 54.45 67.66 49.62 73.88 55.68 80.90   A 0.64 0.60 -1.8 0 0 55.85 81.05   L 61.80 84.63   A 1.32 1.13 -4.4 0 1 61.95 84.74   Q 64.63 87.03 66.52 90.32   A 4.11 4.11 0.0 0 1 67.06 92.73   Q 66.52 99.14 61.84 103.37   A 0.53 0.52 49.4 0 1 61.08 103.31   C 58.47 100.12 60.78 96.78 59.67 93.01   C 57.82 86.76 50.81 84.12 47.22 81.64   Q 39.09 76.03 41.89 66.84   C 43.22 62.50 47.29 60.46 51.11 58.20   C 56.06 55.27 62.24 54.00 68.15 52.22   C 71.32 51.27 73.27 50.18 77.23 48.47   A 3.62 3.38 -73.5 0 0 77.91 48.07   Q 82.29 44.77 81.69 39.02   C 81.30 35.24 77.67 32.86 74.21 32.05   Q 69.61 30.98 65.13 30.05   Q 62.33 29.46 62.06 27.92   A 0.61 0.61 0.0 0 0 61.50 27.43   Q 59.64 27.34 58.10 26.02   A 1.84 1.81 -75.4 0 1 57.51 24.99   L 56.92 21.92   Q 57.31 20.38 56.75 19.22   C 57.74 12.83 66.78 10.27 70.88 8.33   Q 71.93 7.83 75.99 6.59   Q 77.96 5.99 81.12 4.82   Q 84.90 3.42 85.74 0.96   Q 90.02 0.22 93.43 2.67   A 0.76 0.76 0.0 0 1 93.45 3.89   L 85.92 9.52   A 3.47 3.32 16.9 0 1 84.93 10.02   L 77.70 12.25   A 2.68 2.67 18.6 0 0 77.01 12.59   Q 74.83 14.08 74.97 16.30   Z"/>
<path xmlns="http://www.w3.org/2000/svg" fill="#e4d8d0" d="M 85.74 0.96   Q 84.90 3.42 81.12 4.82   Q 77.96 5.99 75.99 6.59   Q 71.93 7.83 70.88 8.33   C 66.78 10.27 57.74 12.83 56.75 19.22   Q 55.92 19.92 56.92 21.92   L 57.51 24.99   A 1.84 1.81 -75.4 0 0 58.10 26.02   Q 59.64 27.34 61.50 27.43   A 0.61 0.61 0.0 0 1 62.06 27.92   Q 62.33 29.46 65.13 30.05   Q 69.61 30.98 74.21 32.05   C 77.67 32.86 81.30 35.24 81.69 39.02   Q 82.29 44.77 77.91 48.07   A 3.62 3.38 -73.5 0 1 77.23 48.47   C 73.27 50.18 71.32 51.27 68.15 52.22   C 62.24 54.00 56.06 55.27 51.11 58.20   C 47.29 60.46 43.22 62.50 41.89 66.84   Q 39.09 76.03 47.22 81.64   C 50.81 84.12 57.82 86.76 59.67 93.01   C 60.78 96.78 58.47 100.12 61.08 103.31   A 0.53 0.52 49.4 0 0 61.84 103.37   Q 66.52 99.14 67.06 92.73   A 4.11 4.11 0.0 0 0 66.52 90.32   Q 64.63 87.03 61.95 84.74   A 1.32 1.13 -4.4 0 0 61.80 84.63   L 55.85 81.05   A 0.64 0.60 -1.8 0 1 55.68 80.90   C 49.62 73.88 54.45 67.66 60.51 63.50   Q 63.10 61.73 68.70 60.11   Q 73.78 58.65 79.74 56.70   C 85.85 54.70 95.20 49.21 95.96 42.27   C 97.00 32.78 90.31 25.64 80.95 24.96   C 74.92 24.52 71.32 25.15 67.96 20.72   A 1.47 1.47 0.0 0 1 69.42 18.38   Q 72.63 19.03 74.97 16.30   Q 78.13 17.84 83.73 18.25   C 94.67 19.06 108.83 24.51 112.37 35.94   C 117.13 51.30 102.58 62.35 89.83 65.34   Q 88.66 65.62 77.70 67.68   C 74.00 68.38 69.85 70.13 68.05 73.63   C 66.41 76.81 68.59 79.63 71.75 80.74   C 75.51 82.05 81.14 84.18 82.77 88.15   C 85.72 95.33 80.06 99.22 74.85 103.49   Q 74.23 103.99 74.22 104.48   Q 74.20 105.08 74.81 105.52   C 73.92 106.47 72.41 105.67 71.88 107.46   Q 71.33 107.76 70.87 107.54   A 0.53 0.50 9.1 0 1 70.57 107.15   Q 70.43 106.10 69.38 106.23   Q 65.76 106.64 62.08 106.14   A 1.31 1.29 32.5 0 0 61.23 106.32   Q 60.31 106.89 60.11 108.21   Q 60.18 109.11 59.85 109.41   Q 59.31 109.90 58.91 109.02   Q 58.60 108.34 58.67 107.71   A 0.66 0.65 -79.3 0 0 58.20 107.02   C 55.76 106.34 53.02 107.20 50.74 107.93   Q 48.25 107.64 49.56 107.36   Q 51.43 101.38 55.18 96.41   A 0.99 0.99 0.0 0 0 55.32 95.45   Q 53.74 91.30 49.31 89.65   C 39.95 86.16 31.28 84.42 26.85 74.54   C 22.86 65.62 29.51 55.38 37.23 51.19   C 42.13 48.53 48.33 47.75 54.42 46.17   Q 57.60 45.34 59.78 44.02   A 0.61 0.60 -32.7 0 0 59.97 43.17   Q 57.61 39.65 53.32 39.16   Q 47.01 38.44 42.11 34.75   C 34.38 28.93 33.80 19.65 40.82 13.00   Q 47.97 6.24 58.83 4.60   Q 66.99 3.37 76.57 1.62   Q 80.46 0.91 85.74 0.96   Z"/>
<path xmlns="http://www.w3.org/2000/svg" fill="#462d22" fill-opacity="0.996" d="M 188.65 107.37   Q 187.53 107.46 187.28 106.99   Q 183.13 99.09 175.57 94.53   L 170.14 91.94   Q 168.30 90.99 166.24 90.90   C 166.89 89.15 168.73 89.13 169.82 88.54   A 2.24 2.17 2.8 0 0 170.55 87.90   Q 173.35 84.08 176.45 81.27   A 0.35 0.35 0.0 0 1 176.97 81.74   L 172.14 88.34   A 0.94 0.93 51.6 0 0 172.04 89.24   Q 172.54 90.42 173.33 91.09   L 177.76 93.69   Q 178.89 94.09 179.53 94.95   A 1.16 1.16 0.0 0 0 181.53 94.71   Q 183.45 90.15 186.27 86.23   Q 190.40 80.49 191.22 78.93   Q 193.40 74.76 202.35 65.35   Q 211.84 55.38 215.24 52.90   A 6.05 5.89 0.8 0 0 216.39 51.81   Q 220.41 46.74 225.90 44.75   C 228.46 43.83 230.63 41.88 232.74 41.00   Q 242.17 37.05 251.79 35.74   A 0.68 0.68 0.0 0 0 252.10 34.51   L 251.18 33.83   A 2.34 2.30 57.8 0 0 249.44 33.42   Q 248.03 33.67 246.99 33.32   A 0.62 0.62 0.0 0 1 246.69 32.37   L 247.27 31.57   A 0.52 0.51 -69.9 0 0 246.89 30.75   L 245.06 30.64   Q 249.19 28.68 253.71 29.19   C 258.49 29.73 263.77 34.31 260.71 39.44   A 2.55 2.45 88.8 0 1 260.02 40.19   C 256.89 42.47 253.65 42.24 249.94 42.29   A 5.69 5.48 36.0 0 0 248.57 42.48   Q 230.52 47.21 217.04 60.87   C 206.03 72.04 198.79 85.32 190.90 101.36   Q 188.97 105.29 188.65 107.37   Z   M 252.47 32.22   L 255.45 34.98   A 0.18 0.18 0.0 0 0 255.70 34.97   L 255.75 34.91   A 2.00 1.40 42.8 0 0 255.24 32.52   L 254.93 32.24   A 2.00 1.40 42.8 0 0 252.51 31.91   L 252.46 31.97   A 0.18 0.18 0.0 0 0 252.47 32.22   Z"/>
<path xmlns="http://www.w3.org/2000/svg" fill="#6e4833" fill-opacity="0.996" d="M 245.06 30.64   L 246.89 30.75   A 0.52 0.51 -69.9 0 1 247.27 31.57   L 246.69 32.37   A 0.62 0.62 0.0 0 0 246.99 33.32   Q 248.03 33.67 249.44 33.42   A 2.34 2.30 57.8 0 1 251.18 33.83   L 252.10 34.51   A 0.68 0.68 0.0 0 1 251.79 35.74   Q 242.17 37.05 232.74 41.00   C 230.63 41.88 228.46 43.83 225.90 44.75   Q 220.41 46.74 216.39 51.81   A 6.05 5.89 0.8 0 1 215.24 52.90   Q 211.84 55.38 202.35 65.35   Q 193.40 74.76 191.22 78.93   Q 190.40 80.49 186.27 86.23   Q 183.45 90.15 181.53 94.71   A 1.16 1.16 0.0 0 1 179.53 94.95   Q 178.89 94.09 177.76 93.69   C 179.50 90.97 180.99 88.31 183.07 85.70   Q 185.22 82.99 189.25 76.97   Q 192.79 71.69 202.12 61.32   Q 206.37 56.60 210.28 53.67   Q 215.12 50.03 218.98 46.43   A 0.46 0.46 0.0 0 0 218.94 45.72   L 218.92 45.70   A 0.88 0.86 -42.2 0 0 217.92 45.66   Q 202.70 55.29 194.87 64.37   Q 180.12 81.47 176.62 86.62   Q 174.38 89.91 173.33 91.09   Q 172.54 90.42 172.04 89.24   A 0.94 0.93 51.6 0 1 172.14 88.34   L 176.97 81.74   A 0.35 0.35 0.0 0 0 176.45 81.27   Q 173.35 84.08 170.55 87.90   A 2.24 2.17 2.8 0 1 169.82 88.54   C 168.73 89.13 166.89 89.15 166.24 90.90   L 160.74 90.85   A 0.98 0.97 19.9 0 0 159.96 91.21   C 159.21 92.14 159.14 93.30 158.52 94.38   Q 156.26 98.34 152.55 99.46   L 158.17 91.47   A 4.36 4.29 -88.1 0 1 159.40 90.30   Q 161.47 88.99 162.56 87.56   C 172.71 74.13 183.86 61.37 197.15 50.91   Q 209.85 40.91 223.82 35.93   Q 233.53 32.47 245.06 30.64   Z"/>
<path xmlns="http://www.w3.org/2000/svg" fill="#c1b0aa" fill-opacity="0.996" d="M 252.47 32.22   A 0.18 0.18 0.0 0 1 252.46 31.97   L 252.51 31.91   A 2.00 1.40 42.8 0 1 254.93 32.24   L 255.24 32.52   A 2.00 1.40 42.8 0 1 255.75 34.91   L 255.70 34.97   A 0.18 0.18 0.0 0 1 255.45 34.98   L 252.47 32.22   Z"/>
<path xmlns="http://www.w3.org/2000/svg" fill="#c1b0aa" fill-opacity="0.996" d="M 177.76 93.69   L 173.33 91.09   Q 174.38 89.91 176.62 86.62   Q 180.12 81.47 194.87 64.37   Q 202.70 55.29 217.92 45.66   A 0.88 0.86 -42.2 0 1 218.92 45.70   L 218.94 45.72   A 0.46 0.46 0.0 0 1 218.98 46.43   Q 215.12 50.03 210.28 53.67   Q 206.37 56.60 202.12 61.32   Q 192.79 71.69 189.25 76.97   Q 185.22 82.99 183.07 85.70   C 180.99 88.31 179.50 90.97 177.76 93.69   Z"/>
<path xmlns="http://www.w3.org/2000/svg" fill="#c88e37" d="M 166.24 90.90   Q 168.30 90.99 170.14 91.94   L 165.64 99.83   A 1.38 1.38 0.0 0 1 164.02 100.46   Q 159.87 99.11 155.62 99.43   A 0.17 0.16 -1.9 0 0 155.46 99.59   L 155.45 99.86   A 0.27 0.26 -2.8 0 0 155.75 100.13   Q 157.08 99.95 158.09 100.73   Q 155.49 100.87 153.00 101.02   Q 152.13 101.07 151.94 100.27   L 152.55 99.46   Q 156.26 98.34 158.52 94.38   C 159.14 93.30 159.21 92.14 159.96 91.21   A 0.98 0.97 19.9 0 1 160.74 90.85   L 166.24 90.90   Z"/>
<path xmlns="http://www.w3.org/2000/svg" fill="#f5f1ed" d="M 175.57 94.53   Q 175.67 94.99 175.61 95.33   A 0.51 0.51 0.0 0 1 175.19 95.75   Q 175.11 95.76 174.97 95.80   A 1.13 1.11 -80.7 0 0 174.30 96.29   L 171.18 101.18   A 3.89 3.86 -28.7 0 0 170.57 103.23   Q 170.55 105.07 169.88 106.04   C 165.83 103.53 163.25 101.69 158.09 100.73   Q 157.08 99.95 155.75 100.13   A 0.27 0.26 -2.8 0 1 155.45 99.86   L 155.46 99.59   A 0.17 0.16 -1.9 0 1 155.62 99.43   Q 159.87 99.11 164.02 100.46   A 1.38 1.38 0.0 0 0 165.64 99.83   L 170.14 91.94   L 175.57 94.53   Z"/>
<path xmlns="http://www.w3.org/2000/svg" fill="#c88e37" d="M 188.65 107.37   Q 186.98 114.15 182.46 120.45   Q 179.74 115.90 178.93 114.81   Q 174.89 109.44 169.88 106.04   Q 170.55 105.07 170.57 103.23   A 3.89 3.86 -28.7 0 1 171.18 101.18   L 174.30 96.29   A 1.13 1.11 -80.7 0 1 174.97 95.80   Q 175.11 95.76 175.19 95.75   A 0.51 0.51 0.0 0 0 175.61 95.33   Q 175.67 94.99 175.57 94.53   Q 183.13 99.09 187.28 106.99   Q 187.53 107.46 188.65 107.37   Z   M 181.68 112.42   L 181.88 109.80   A 0.87 0.87 0.0 0 1 182.52 109.03   Q 183.53 108.76 183.92 108.51   Q 184.60 108.09 184.38 107.02   Q 183.20 101.32 178.64 98.99   A 0.98 0.98 0.0 0 0 177.22 99.79   L 177.02 102.31   A 0.91 0.91 0.0 0 1 176.65 102.98   L 173.86 105.07   A 1.05 1.05 0.0 0 0 173.81 106.72   L 180.94 112.73   A 0.45 0.45 0.0 0 0 181.68 112.42   Z"/>
<path xmlns="http://www.w3.org/2000/svg" fill="#6e4833" fill-opacity="0.996" d="M 181.68 112.42   A 0.45 0.45 0.0 0 1 180.94 112.73   L 173.81 106.72   A 1.05 1.05 0.0 0 1 173.86 105.07   L 176.65 102.98   A 0.91 0.91 0.0 0 0 177.02 102.31   L 177.22 99.79   A 0.98 0.98 0.0 0 1 178.64 98.99   Q 183.20 101.32 184.38 107.02   Q 184.60 108.09 183.92 108.51   Q 183.53 108.76 182.52 109.03   A 0.87 0.87 0.0 0 0 181.88 109.80   L 181.68 112.42   Z"/>
<path xmlns="http://www.w3.org/2000/svg" fill="#592d18" fill-opacity="0.996" d="M 151.94 100.27   Q 152.13 101.07 153.00 101.02   Q 155.49 100.87 158.09 100.73   C 163.25 101.69 165.83 103.53 169.88 106.04   Q 174.89 109.44 178.93 114.81   Q 179.74 115.90 182.46 120.45   L 178.01 128.33   Q 180.37 121.60 177.23 116.29   A 0.86 0.86 0.0 0 0 175.63 116.77   C 175.85 121.85 173.75 125.44 170.53 130.48   A 35.29 34.86 -17.6 0 0 167.82 135.62   C 164.30 143.82 160.58 151.49 155.54 158.05   C 153.28 161.01 151.98 164.23 150.28 167.26   A 17.73 17.47 81.5 0 1 147.82 170.64   Q 143.31 175.51 142.27 176.75   Q 138.37 181.41 134.19 185.83   C 129.41 190.88 123.50 195.16 118.85 198.87   Q 117.50 199.95 115.19 203.42   A 0.67 0.66 33.8 0 1 114.26 203.60   Q 112.24 202.23 109.28 203.70   Q 98.50 209.07 85.00 211.26   C 68.85 213.87 47.98 206.99 39.62 191.54   A 0.10 0.10 0.0 0 1 39.77 191.42   C 44.37 195.80 49.21 201.49 56.25 204.26   A 0.68 0.67 74.8 0 0 56.91 203.10   Q 53.68 200.54 49.24 197.21   Q 40.59 190.75 39.81 179.52   A 0.42 0.42 0.0 0 1 40.61 179.33   Q 43.89 187.37 50.87 192.30   A 2.47 2.37 1.6 0 1 51.46 192.90   Q 52.79 194.87 54.55 195.95   A 0.50 0.50 0.0 0 0 55.29 195.67   Q 55.54 194.79 55.47 194.72   A 1.70 1.19 -24.5 0 1 56.76 192.53   Q 60.41 191.64 64.07 193.78   Q 68.97 196.65 72.69 197.85   A 0.52 0.51 83.8 0 0 73.29 197.10   L 68.89 189.48   A 0.82 0.81 52.3 0 1 69.01 188.50   L 72.47 185.05   A 0.52 0.51 -41.3 0 1 73.25 185.10   L 77.85 191.27   A 0.76 0.75 -27.2 0 0 78.68 191.53   C 82.00 190.49 84.85 187.51 86.74 185.97   C 91.45 182.13 92.30 176.36 89.18 171.07   A 2.47 2.46 -14.3 0 0 87.12 169.85   L 85.14 169.79   A 1.73 1.70 81.9 0 1 83.55 168.58   L 81.92 163.29   A 0.66 0.66 0.0 0 1 82.88 162.52   C 84.91 163.70 87.63 165.03 88.93 162.28   A 0.22 0.22 0.0 0 0 88.79 161.98   Q 88.68 161.94 88.58 161.84   A 0.63 0.62 32.1 0 1 88.43 161.22   C 88.91 159.63 89.04 158.18 88.03 156.67   Q 86.59 154.48 85.57 151.56   A 0.57 0.57 0.0 0 1 86.34 150.85   Q 89.65 152.27 93.29 150.92   A 0.66 0.66 0.0 0 0 93.29 149.69   Q 88.01 147.73 84.95 143.37   A 0.75 0.74 16.3 0 0 83.65 144.08   Q 85.07 147.52 83.90 151.53   A 0.68 0.68 0.0 0 1 82.65 151.66   Q 78.56 144.09 81.80 137.84   A 2.39 2.38 34.8 0 0 81.28 134.96   C 79.05 132.97 76.97 132.24 73.90 131.65   Q 69.86 130.88 66.02 129.50   L 78.18 127.64   Q 85.03 126.45 92.94 123.18   Q 99.32 120.55 100.97 114.41   Q 104.23 123.16 107.06 132.20   C 108.76 137.62 109.77 141.06 115.56 140.33   Q 117.81 140.05 120.40 138.27   Q 126.23 134.28 131.42 128.16   Q 137.54 120.95 137.82 120.57   Q 138.04 120.26 150.22 103.72   A 1.14 1.10 77.8 0 0 150.37 103.48   L 151.94 100.27   Z   M 167.57 107.05   L 163.40 105.11   Q 159.45 103.34 154.67 103.00   A 2.15 2.14 18.8 0 0 152.73 103.95   Q 148.46 110.39 144.90 114.71   C 140.67 119.84 137.83 125.64 133.38 129.95   C 130.75 132.50 129.60 134.83 129.87 138.22   A 1.53 1.52 86.2 0 1 128.43 139.87   Q 120.74 140.27 114.36 142.65   A 1.68 1.68 0.0 0 0 114.39 145.81   L 121.76 148.39   A 0.65 0.65 0.0 0 1 121.74 149.63   L 118.43 150.65   A 1.05 1.05 0.0 0 0 118.06 152.46   L 121.12 155.04   A 1.24 1.23 -62.8 0 1 121.52 156.30   L 120.06 161.83   A 0.84 0.84 0.0 0 0 120.23 162.60   C 122.96 165.95 126.06 164.88 129.57 163.24   Q 132.44 161.89 135.66 163.19   A 2.80 2.78 34.0 0 0 138.64 162.62   L 151.04 150.70   A 1.37 1.34 81.2 0 0 151.34 150.28   C 152.33 148.12 153.62 145.40 155.24 143.45   Q 160.90 136.67 165.05 129.08   Q 166.52 126.39 167.51 123.38   C 168.78 119.54 170.94 116.12 172.54 113.51   A 1.27 1.26 45.3 0 0 172.54 112.18   Q 170.38 108.68 167.57 107.05   Z"/>
<path xmlns="http://www.w3.org/2000/svg" fill="#874625" d="M 163.40 105.11   Q 156.03 116.51 148.28 127.74   C 146.08 130.92 143.48 135.28 140.32 138.68   Q 133.68 145.64 124.89 151.12   A 0.86 0.85 49.2 0 0 124.79 152.50   L 129.75 156.68   A 0.71 0.70 47.2 0 0 130.61 156.72   Q 136.79 152.47 141.00 146.20   Q 144.26 142.22 147.47 138.21   Q 150.58 134.32 153.33 129.78   Q 156.27 124.91 159.24 120.06   Q 163.26 113.49 167.57 107.05   Q 170.38 108.68 172.54 112.18   A 1.27 1.26 45.3 0 1 172.54 113.51   C 170.94 116.12 168.78 119.54 167.51 123.38   Q 166.52 126.39 165.05 129.08   Q 160.90 136.67 155.24 143.45   C 153.62 145.40 152.33 148.12 151.34 150.28   A 1.37 1.34 81.2 0 1 151.04 150.70   L 138.64 162.62   A 2.80 2.78 34.0 0 1 135.66 163.19   Q 132.44 161.89 129.57 163.24   C 126.06 164.88 122.96 165.95 120.23 162.60   A 0.84 0.84 0.0 0 1 120.06 161.83   L 121.52 156.30   A 1.24 1.23 -62.8 0 0 121.12 155.04   L 118.06 152.46   A 1.05 1.05 0.0 0 1 118.43 150.65   L 121.74 149.63   A 0.65 0.65 0.0 0 0 121.76 148.39   L 114.39 145.81   A 1.68 1.68 0.0 0 1 114.36 142.65   Q 120.74 140.27 128.43 139.87   A 1.53 1.52 86.2 0 0 129.87 138.22   C 129.60 134.83 130.75 132.50 133.38 129.95   C 137.83 125.64 140.67 119.84 144.90 114.71   Q 148.46 110.39 152.73 103.95   A 2.15 2.14 18.8 0 1 154.67 103.00   Q 159.45 103.34 163.40 105.11   Z"/>
<path xmlns="http://www.w3.org/2000/svg" fill="#c49986" fill-opacity="0.996" d="M 163.40 105.11   L 167.57 107.05   Q 163.26 113.49 159.24 120.06   Q 156.27 124.91 153.33 129.78   Q 150.58 134.32 147.47 138.21   Q 144.26 142.22 141.00 146.20   L 139.36 147.66   A 0.87 0.86 -44.2 0 1 138.20 147.65   Q 136.94 146.49 135.29 145.75   A 0.55 0.55 0.0 0 1 135.09 144.89   L 140.32 138.68   C 143.48 135.28 146.08 130.92 148.28 127.74   Q 156.03 116.51 163.40 105.11   Z"/>
<path xmlns="http://www.w3.org/2000/svg" fill="#a76c4a" fill-opacity="0.996" d="M 100.97 114.41   Q 99.32 120.55 92.94 123.18   Q 85.03 126.45 78.18 127.64   L 78.50 127.03   A 0.46 0.46 0.0 0 0 78.12 126.35   Q 72.65 126.14 68.39 127.52   A 2.87 2.81 -52.8 0 1 67.45 127.66   L 48.61 127.11   A 0.39 0.37 -61.8 0 0 48.34 127.20   Q 47.69 127.76 49.00 128.61   Q 48.84 128.37 48.18 128.57   Q 43.90 128.10 38.19 126.10   Q 31.97 123.91 28.86 118.29   Q 32.03 113.15 38.57 110.83   Q 45.06 108.53 49.56 107.36   Q 48.25 107.64 50.74 107.93   Q 50.95 107.87 51.17 107.97   Q 51.35 108.05 51.44 108.29   Q 51.93 109.64 52.59 111.27   C 48.70 112.01 39.59 114.15 37.25 117.50   A 2.58 2.20 40.7 0 0 37.72 120.55   C 40.96 123.79 49.29 124.65 54.01 124.92   C 64.71 125.55 76.71 125.13 87.09 121.55   Q 90.68 120.32 92.86 117.85   A 2.51 2.12 -44.3 0 0 93.15 114.89   C 91.85 113.23 90.14 113.00 88.41 112.40   Q 81.51 110.00 74.30 110.32   A 3.07 2.84 47.2 0 1 73.66 110.27   L 71.09 109.78   Q 71.99 108.67 71.88 107.46   C 72.41 105.67 73.92 106.47 74.81 105.52   Q 75.91 106.05 76.49 106.07   Q 84.53 106.37 92.29 108.54   Q 97.60 110.02 100.97 114.41   Z"/>
<path xmlns="http://www.w3.org/2000/svg" fill="#c49986" fill-opacity="0.996" d="M 71.88 107.46   Q 71.99 108.67 71.09 109.78   L 69.94 110.80   L 62.98 110.68   Q 60.80 110.20 60.06 111.20   A 0.66 0.66 0.0 0 0 59.96 111.79   L 61.92 118.14   A 0.70 0.70 0.0 0 1 60.96 118.99   Q 56.58 116.98 54.55 113.00   Q 56.04 112.99 55.64 111.58   A 0.78 0.77 -6.9 0 1 56.41 110.60   L 59.38 110.69   A 0.84 0.84 0.0 0 0 60.21 110.05   Q 60.41 109.23 60.11 108.21   Q 60.31 106.89 61.23 106.32   A 1.31 1.29 32.5 0 1 62.08 106.14   Q 65.76 106.64 69.38 106.23   Q 70.43 106.10 70.57 107.15   A 0.53 0.50 9.1 0 0 70.87 107.54   Q 71.33 107.76 71.88 107.46   Z"/>
<path xmlns="http://www.w3.org/2000/svg" fill="#c1b0aa" fill-opacity="0.996" d="M 60.11 108.21   Q 60.41 109.23 60.21 110.05   A 0.84 0.84 0.0 0 1 59.38 110.69   L 56.41 110.60   A 0.78 0.77 -6.9 0 0 55.64 111.58   Q 56.04 112.99 54.55 113.00   Q 53.60 111.50 52.59 111.27   Q 51.93 109.64 51.44 108.29   Q 51.35 108.05 51.17 107.97   Q 50.95 107.87 50.74 107.93   C 53.02 107.20 55.76 106.34 58.20 107.02   A 0.66 0.65 -79.3 0 1 58.67 107.71   Q 58.60 108.34 58.91 109.02   Q 59.31 109.90 59.85 109.41   Q 60.18 109.11 60.11 108.21   Z"/>
<path xmlns="http://www.w3.org/2000/svg" fill="#462d22" fill-opacity="0.996" d="M 52.59 111.27   Q 53.60 111.50 54.55 113.00   Q 56.58 116.98 60.96 118.99   A 0.70 0.70 0.0 0 0 61.92 118.14   L 59.96 111.79   A 0.66 0.66 0.0 0 1 60.06 111.20   Q 60.80 110.20 62.98 110.68   Q 65.06 110.56 64.77 113.97   A 1.89 1.88 17.5 0 0 65.71 115.76   L 70.17 118.34   A 0.50 0.49 -84.5 0 0 70.88 117.75   Q 69.75 114.28 69.94 110.80   L 71.09 109.78   L 73.66 110.27   A 3.07 2.84 47.2 0 0 74.30 110.32   Q 81.51 110.00 88.41 112.40   C 90.14 113.00 91.85 113.23 93.15 114.89   A 2.51 2.12 -44.3 0 1 92.86 117.85   Q 90.68 120.32 87.09 121.55   C 76.71 125.13 64.71 125.55 54.01 124.92   C 49.29 124.65 40.96 123.79 37.72 120.55   A 2.58 2.20 40.7 0 1 37.25 117.50   C 39.59 114.15 48.70 112.01 52.59 111.27   Z"/>
<path xmlns="http://www.w3.org/2000/svg" fill="#a76c4a" fill-opacity="0.996" d="M 69.94 110.80   Q 69.75 114.28 70.88 117.75   A 0.50 0.49 -84.5 0 1 70.17 118.34   L 65.71 115.76   A 1.89 1.88 17.5 0 1 64.77 113.97   Q 65.06 110.56 62.98 110.68   L 69.94 110.80   Z"/>
<path xmlns="http://www.w3.org/2000/svg" fill="#744227" d="M 178.01 128.33   C 168.63 147.56 160.71 163.48 149.56 179.07   Q 147.53 181.91 140.92 189.42   C 129.99 201.84 117.29 209.57 102.30 215.04   Q 99.12 216.20 90.78 217.77   C 79.34 219.94 67.09 218.39 56.42 214.53   C 43.84 209.98 32.76 197.61 28.77 184.53   Q 26.57 177.34 26.14 172.92   Q 25.60 167.39 24.90 161.50   Q 24.10 154.87 25.84 142.94   L 25.96 138.76   L 28.86 118.29   Q 31.97 123.91 38.19 126.10   Q 43.90 128.10 48.18 128.57   C 46.58 130.02 44.01 131.49 43.01 133.10   Q 40.61 136.95 40.68 142.26   Q 40.87 157.00 41.58 161.22   C 42.65 167.60 45.23 176.36 49.10 181.37   A 1.46 1.45 80.1 0 0 49.82 181.88   Q 59.04 184.84 60.81 185.26   C 64.01 186.04 66.67 185.27 68.12 182.32   Q 68.84 180.85 69.14 180.35   A 1.83 1.82 11.3 0 1 70.41 179.51   L 71.54 179.34   A 3.07 3.07 0.0 0 0 74.13 176.66   Q 74.94 169.84 77.49 161.52   Q 78.81 157.21 77.51 151.24   A 7.15 7.04 21.5 0 0 76.35 148.63   C 74.68 146.29 73.20 144.59 71.59 141.78   C 68.77 136.86 66.48 133.20 61.51 131.08   A 0.54 0.53 30.0 0 1 61.29 130.27   Q 61.50 129.99 61.94 129.71   Q 63.84 129.15 66.02 129.50   Q 69.86 130.88 73.90 131.65   C 76.97 132.24 79.05 132.97 81.28 134.96   A 2.39 2.38 34.8 0 1 81.80 137.84   Q 78.56 144.09 82.65 151.66   A 0.68 0.68 0.0 0 0 83.90 151.53   Q 85.07 147.52 83.65 144.08   A 0.75 0.74 16.3 0 1 84.95 143.37   Q 88.01 147.73 93.29 149.69   A 0.66 0.66 0.0 0 1 93.29 150.92   Q 89.65 152.27 86.34 150.85   A 0.57 0.57 0.0 0 0 85.57 151.56   Q 86.59 154.48 88.03 156.67   C 89.04 158.18 88.91 159.63 88.43 161.22   A 0.63 0.62 32.1 0 0 88.58 161.84   Q 88.68 161.94 88.79 161.98   A 0.22 0.22 0.0 0 1 88.93 162.28   C 87.63 165.03 84.91 163.70 82.88 162.52   A 0.66 0.66 0.0 0 0 81.92 163.29   L 83.55 168.58   A 1.73 1.70 81.9 0 0 85.14 169.79   L 87.12 169.85   A 2.47 2.46 -14.3 0 1 89.18 171.07   C 92.30 176.36 91.45 182.13 86.74 185.97   C 84.85 187.51 82.00 190.49 78.68 191.53   A 0.76 0.75 -27.2 0 1 77.85 191.27   L 73.25 185.10   A 0.52 0.51 -41.3 0 0 72.47 185.05   L 69.01 188.50   A 0.82 0.81 52.3 0 0 68.89 189.48   L 73.29 197.10   A 0.52 0.51 83.8 0 1 72.69 197.85   Q 68.97 196.65 64.07 193.78   Q 60.41 191.64 56.76 192.53   A 1.70 1.19 -24.5 0 0 55.47 194.72   Q 55.54 194.79 55.29 195.67   A 0.50 0.50 0.0 0 1 54.55 195.95   Q 52.79 194.87 51.46 192.90   A 2.47 2.37 1.6 0 0 50.87 192.30   Q 43.89 187.37 40.61 179.33   A 0.42 0.42 0.0 0 0 39.81 179.52   Q 40.59 190.75 49.24 197.21   Q 53.68 200.54 56.91 203.10   A 0.68 0.67 74.8 0 1 56.25 204.26   C 49.21 201.49 44.37 195.80 39.77 191.42   A 0.10 0.10 0.0 0 0 39.62 191.54   C 47.98 206.99 68.85 213.87 85.00 211.26   Q 98.50 209.07 109.28 203.70   Q 112.24 202.23 114.26 203.60   A 0.67 0.66 33.8 0 0 115.19 203.42   Q 117.50 199.95 118.85 198.87   C 123.50 195.16 129.41 190.88 134.19 185.83   Q 138.37 181.41 142.27 176.75   Q 143.31 175.51 147.82 170.64   A 17.73 17.47 81.5 0 0 150.28 167.26   C 151.98 164.23 153.28 161.01 155.54 158.05   C 160.58 151.49 164.30 143.82 167.82 135.62   A 35.29 34.86 -17.6 0 1 170.53 130.48   C 173.75 125.44 175.85 121.85 175.63 116.77   A 0.86 0.86 0.0 0 1 177.23 116.29   Q 180.37 121.60 178.01 128.33   Z"/>
<path xmlns="http://www.w3.org/2000/svg" fill="#e4d8d0" d="M 78.18 127.64   L 66.02 129.50   Q 63.84 129.15 61.94 129.71   Q 55.16 130.08 49.00 128.61   Q 47.69 127.76 48.34 127.20   A 0.39 0.37 -61.8 0 1 48.61 127.11   L 67.45 127.66   A 2.87 2.81 -52.8 0 0 68.39 127.52   Q 72.65 126.14 78.12 126.35   A 0.46 0.46 0.0 0 1 78.50 127.03   L 78.18 127.64   Z"/>
<path xmlns="http://www.w3.org/2000/svg" fill="#985331" d="M 49.00 128.61   Q 55.16 130.08 61.94 129.71   Q 61.50 129.99 61.29 130.27   A 0.54 0.53 30.0 0 0 61.51 131.08   C 66.48 133.20 68.77 136.86 71.59 141.78   C 73.20 144.59 74.68 146.29 76.35 148.63   A 7.15 7.04 21.5 0 1 77.51 151.24   Q 78.81 157.21 77.49 161.52   Q 74.94 169.84 74.13 176.66   A 3.07 3.07 0.0 0 1 71.54 179.34   L 70.41 179.51   A 1.83 1.82 11.3 0 0 69.14 180.35   Q 68.84 180.85 68.12 182.32   C 66.67 185.27 64.01 186.04 60.81 185.26   Q 59.04 184.84 49.82 181.88   A 1.46 1.45 80.1 0 1 49.10 181.37   C 45.23 176.36 42.65 167.60 41.58 161.22   Q 40.87 157.00 40.68 142.26   Q 40.61 136.95 43.01 133.10   C 44.01 131.49 46.58 130.02 48.18 128.57   Q 48.84 128.37 49.00 128.61   Z   M 56.61 161.43   Q 57.17 159.25 58.30 157.49   A 2.99 2.67 -24.6 0 0 58.65 156.69   C 60.00 151.78 61.59 147.81 59.68 142.77   Q 58.85 140.56 60.96 134.38   A 1.67 1.67 0.0 0 0 59.43 132.17   L 53.67 132.01   A 2.24 2.23 6.7 0 0 51.41 133.79   Q 50.19 139.57 50.67 146.69   A 6.11 5.56 50.4 0 1 50.61 147.97   C 49.59 154.08 52.01 156.41 55.39 161.63   A 0.68 0.67 35.6 0 0 56.61 161.43   Z"/>
<path xmlns="http://www.w3.org/2000/svg" fill="#e8b55f" fill-opacity="0.996" d="M 234.47 145.99   Q 232.75 146.23 231.56 147.10   A 1.20 1.19 -14.3 0 0 231.08 147.90   Q 230.73 150.46 229.82 151.61   Q 223.63 159.36 219.17 167.60   Q 218.52 168.81 216.92 169.57   A 1.33 1.31 89.6 0 0 216.27 170.24   L 213.90 175.53   L 211.30 178.26   A 0.50 0.50 0.0 0 1 210.45 177.79   L 210.99 175.66   A 1.21 0.76 -50.8 0 0 211.02 175.41   L 211.34 169.05   A 3.33 3.29 64.9 0 1 211.98 167.25   Q 214.51 163.84 214.23 160.07   Q 216.56 156.25 221.07 153.07   Q 225.67 149.83 229.64 147.23   A 3.48 3.33 -0.3 0 0 230.59 146.31   Q 237.07 137.03 246.00 130.31   A 0.68 0.68 0.0 0 1 247.04 131.11   Q 246.22 133.07 244.62 134.61   Q 239.16 139.87 234.47 145.99   Z"/>
<path xmlns="http://www.w3.org/2000/svg" fill="#c49986" fill-opacity="0.996" d="M 56.61 161.43   A 0.68 0.67 35.6 0 1 55.39 161.63   C 52.01 156.41 49.59 154.08 50.61 147.97   A 6.11 5.56 50.4 0 0 50.67 146.69   Q 50.19 139.57 51.41 133.79   A 2.24 2.23 6.7 0 1 53.67 132.01   L 59.43 132.17   A 1.67 1.67 0.0 0 1 60.96 134.38   Q 58.85 140.56 59.68 142.77   C 61.59 147.81 60.00 151.78 58.65 156.69   A 2.99 2.67 -24.6 0 1 58.30 157.49   Q 57.17 159.25 56.61 161.43   Z"/>
<path xmlns="http://www.w3.org/2000/svg" fill="#e8b55f" fill-opacity="0.996" d="M 210.20 155.46   L 208.54 155.45   Q 206.57 156.43 206.23 155.77   Q 210.95 147.35 213.43 144.17   Q 216.79 139.85 217.82 138.28   A 0.47 0.47 0.0 0 1 218.67 138.40   L 218.80 138.83   A 1.52 1.50 -36.7 0 1 218.60 140.14   Q 214.47 146.05 211.73 151.22   Q 210.67 153.23 210.20 155.46   Z"/>
<path xmlns="http://www.w3.org/2000/svg" fill="#462d22" fill-opacity="0.996" d="M 25.96 138.76   L 25.84 142.94   L 25.96 138.76   Z"/>
<path xmlns="http://www.w3.org/2000/svg" fill="#a76c4a" fill-opacity="0.996" d="M 140.32 138.68   L 135.09 144.89   A 0.55 0.55 0.0 0 0 135.29 145.75   Q 136.94 146.49 138.20 147.65   A 0.87 0.86 -44.2 0 0 139.36 147.66   L 141.00 146.20   Q 136.79 152.47 130.61 156.72   A 0.71 0.70 47.2 0 1 129.75 156.68   L 124.79 152.50   A 0.86 0.85 49.2 0 1 124.89 151.12   Q 133.68 145.64 140.32 138.68   Z"/>
<path xmlns="http://www.w3.org/2000/svg" fill="#e8b55f" fill-opacity="0.996" d="M 260.11 149.94   Q 255.58 150.16 250.42 154.38   Q 246.51 157.57 243.61 160.59   Q 242.49 161.76 237.27 164.13   A 3.21 3.14 10.9 0 0 236.44 164.68   L 229.15 171.28   L 224.97 172.73   A 0.28 0.27 -84.2 0 1 224.65 172.33   L 231.28 160.84   A 0.66 0.64 49.8 0 0 231.32 160.25   Q 230.89 159.21 231.12 158.04   Q 231.35 157.59 232.05 157.44   Q 232.34 158.18 232.74 158.42   A 0.62 0.61 41.9 0 0 233.43 158.39   Q 237.96 154.92 241.49 153.98   Q 246.99 152.53 249.83 151.32   Q 256.41 148.52 257.99 148.11   Q 262.85 146.87 273.68 142.24   A 0.51 0.50 69.4 0 1 274.36 142.55   Q 274.65 143.45 273.79 143.82   Q 263.88 148.04 260.11 149.94   Z"/>
<path xmlns="http://www.w3.org/2000/svg" fill="#bb7e2c" d="M 234.47 145.99   L 232.05 157.44   Q 231.35 157.59 231.12 158.04   Q 231.17 157.55 231.02 157.32   A 0.43 0.43 0.0 0 0 230.26 157.41   Q 227.99 163.82 223.50 169.16   C 220.80 172.37 218.24 176.25 213.90 175.53   L 216.27 170.24   A 1.33 1.31 89.6 0 1 216.92 169.57   Q 218.52 168.81 219.17 167.60   Q 223.63 159.36 229.82 151.61   Q 230.73 150.46 231.08 147.90   A 1.20 1.19 -14.3 0 1 231.56 147.10   Q 232.75 146.23 234.47 145.99   Z"/>
<path xmlns="http://www.w3.org/2000/svg" fill="#bb7e2c" d="M 260.11 149.94   C 258.10 152.41 256.01 154.81 254.32 157.36   Q 250.10 163.72 244.13 167.31   A 6.78 6.36 -80.5 0 0 242.91 168.24   Q 241.24 169.89 238.83 171.49   A 0.63 0.63 0.0 0 0 239.23 172.64   Q 245.07 172.13 251.26 174.46   Q 249.48 176.37 250.72 178.27   Q 248.55 179.58 243.39 183.64   Q 237.33 188.40 226.30 191.92   Q 227.88 192.40 225.99 192.58   Q 224.51 191.98 225.28 190.69   A 0.64 0.63 19.1 0 0 224.81 189.73   Q 221.62 189.34 218.27 188.76   Q 216.24 188.40 210.16 183.94   L 221.90 183.41   Q 223.27 183.89 225.29 182.66   L 238.76 178.95   A 3.11 3.01 -49.2 0 1 239.77 178.86   L 243.76 179.17   A 2.30 2.30 0.0 0 0 245.59 178.47   L 245.78 178.28   A 0.75 0.70 25.7 0 0 245.34 177.15   L 235.20 174.50   L 237.40 174.37   A 0.54 0.54 0.0 0 0 237.89 173.68   C 237.81 173.38 237.00 173.14 236.77 172.40   Q 236.59 171.83 236.45 171.36   A 0.67 0.67 0.0 0 0 235.65 170.89   Q 232.42 171.62 229.15 171.28   L 236.44 164.68   A 3.21 3.14 10.9 0 1 237.27 164.13   Q 242.49 161.76 243.61 160.59   Q 246.51 157.57 250.42 154.38   Q 255.58 150.16 260.11 149.94   Z"/>
<path xmlns="http://www.w3.org/2000/svg" fill="#c88e37" d="M 189.48 167.11   Q 188.55 167.63 188.81 169.32   Q 189.74 175.43 188.34 180.94   Q 186.45 188.42 185.18 190.98   C 183.20 194.97 179.31 200.05 174.12 199.20   A 1.67 1.67 0.0 0 0 172.58 199.77   L 170.07 202.75   A 0.39 0.39 0.0 0 1 169.44 202.31   C 170.43 200.60 170.72 199.26 170.61 197.13   Q 170.29 191.32 171.65 185.36   Q 172.56 184.54 172.38 182.79   Q 178.41 174.15 186.69 167.07   A 3.00 2.93 81.6 0 0 187.48 165.98   Q 190.93 157.62 197.49 151.66   A 0.23 0.22 82.5 0 1 197.84 151.93   Q 194.98 157.52 191.54 162.17   C 190.39 163.73 189.94 165.26 189.48 167.11   Z   M 178.84 184.15   Q 178.27 183.82 178.25 183.82   A 2.59 2.59 0.0 0 0 176.46 185.66   L 174.28 193.91   A 0.60 0.60 0.0 0 0 175.33 194.43   C 176.16 193.40 177.39 190.23 179.36 189.72   A 1.40 1.38 -82.5 0 0 180.22 189.05   Q 181.62 186.54 181.78 185.75   Q 183.37 177.90 186.84 171.43   A 0.26 0.26 0.0 0 0 186.44 171.11   Q 184.43 172.79 183.77 174.95   C 182.78 178.22 181.46 180.01 180.81 183.21   A 1.36 1.33 -69.8 0 1 178.84 184.15   Z"/>
<path xmlns="http://www.w3.org/2000/svg" fill="#c88e37" d="M 208.54 155.45   Q 207.91 157.83 208.12 160.27   A 2.11 2.08 27.8 0 0 208.40 161.15   Q 209.86 163.62 209.15 166.93   C 207.74 173.52 206.23 178.93 202.33 184.28   Q 199.53 188.12 195.96 187.29   A 0.86 0.83 -55.7 0 0 195.24 187.44   L 190.46 191.01   A 0.21 0.21 0.0 0 1 190.13 190.77   C 190.85 188.61 191.20 186.98 190.76 184.68   Q 189.95 180.55 191.37 176.31   C 191.84 174.89 190.37 174.20 190.12 172.88   Q 189.90 171.72 190.69 171.19   Q 191.11 172.25 191.97 171.97   A 0.79 0.78 -87.3 0 0 192.44 171.54   C 195.76 164.42 201.16 160.85 206.23 155.77   Q 206.57 156.43 208.54 155.45   Z   M 207.68 158.86   A 0.59 0.59 0.0 0 0 206.64 158.50   Q 204.35 161.21 203.22 164.55   A 3.30 3.11 72.3 0 1 202.87 165.28   Q 200.81 168.39 198.40 170.25   C 196.88 171.43 195.66 173.18 195.52 174.65   Q 195.17 178.37 194.29 181.59   A 0.89 0.89 0.0 0 0 195.86 182.35   L 200.74 175.68   A 3.10 2.87 -19.6 0 0 201.18 174.84   L 205.54 162.37   A 2.82 2.79 -10.3 0 1 206.41 161.13   Q 207.70 160.09 207.68 158.86   Z"/>
<path xmlns="http://www.w3.org/2000/svg" fill="#8a550f" fill-opacity="0.996" d="M 210.20 155.46   L 211.24 162.31   Q 209.97 163.03 210.64 164.72   Q 210.91 165.39 211.58 165.12   Q 212.53 164.72 212.10 163.23   L 214.23 160.07   Q 214.51 163.84 211.98 167.25   A 3.33 3.29 64.9 0 0 211.34 169.05   L 211.02 175.41   A 1.21 0.76 -50.8 0 1 210.99 175.66   L 210.45 177.79   A 0.50 0.50 0.0 0 0 211.30 178.26   L 213.90 175.53   C 218.24 176.25 220.80 172.37 223.50 169.16   Q 227.99 163.82 230.26 157.41   A 0.43 0.43 0.0 0 1 231.02 157.32   Q 231.17 157.55 231.12 158.04   Q 230.89 159.21 231.32 160.25   A 0.66 0.64 49.8 0 1 231.28 160.84   L 224.65 172.33   A 0.28 0.27 -84.2 0 0 224.97 172.73   L 229.15 171.28   Q 232.42 171.62 235.65 170.89   A 0.67 0.67 0.0 0 1 236.45 171.36   Q 236.59 171.83 236.77 172.40   C 237.00 173.14 237.81 173.38 237.89 173.68   A 0.54 0.54 0.0 0 1 237.40 174.37   L 235.20 174.50   Q 223.90 172.52 214.17 178.31   A 4.32 4.07 6.9 0 0 213.52 178.79   Q 210.32 181.66 207.66 183.38   Q 207.34 183.58 206.35 185.07   A 0.24 0.24 0.0 0 0 206.47 185.42   L 206.83 185.54   A 0.47 0.46 -60.6 0 0 207.35 185.39   Q 208.44 184.01 210.16 183.94   Q 216.24 188.40 218.27 188.76   Q 221.62 189.34 224.81 189.73   A 0.64 0.63 19.1 0 1 225.28 190.69   Q 224.51 191.98 225.99 192.58   Q 226.33 193.09 225.66 193.43   C 214.81 189.42 204.95 184.42 193.78 190.82   C 190.80 192.53 188.40 194.88 185.71 196.62   A 0.28 0.27 35.1 0 0 185.80 197.12   C 186.19 197.21 186.91 197.15 187.35 196.96   Q 190.04 195.78 192.29 196.87   C 192.73 201.46 198.26 201.91 201.83 202.38   A 1.94 1.91 -23.7 0 1 202.67 202.70   L 205.80 204.81   Q 205.40 204.78 205.14 205.37   Q 204.73 204.66 204.23 204.89   Q 203.60 205.20 203.73 205.84   Q 203.84 206.37 204.12 206.79   A 0.49 0.48 68.4 0 1 203.80 207.54   L 202.83 207.70   L 196.16 203.93   A 21.65 21.33 68.9 0 0 192.75 202.39   L 186.41 200.18   A 2.31 2.27 54.2 0 0 185.65 200.05   Q 178.88 200.18 177.65 200.59   Q 172.70 202.24 166.89 206.28   A 0.34 0.34 0.0 0 0 166.93 206.86   L 168.69 207.77   Q 171.40 210.43 174.09 213.19   C 175.26 214.38 176.25 214.61 177.73 214.61   A 3.35 3.35 0.0 0 1 179.51 215.10   L 185.00 218.47   Q 184.17 218.43 183.53 218.71   Q 183.68 218.50 183.60 218.25   Q 183.47 217.85 182.96 217.95   Q 181.36 217.09 178.90 219.55   Q 172.69 214.62 171.01 213.51   Q 161.64 207.32 148.88 213.28   L 149.23 210.94   Q 149.21 211.13 149.22 211.28   A 0.40 0.40 0.0 0 0 149.84 211.60   Q 151.14 210.75 151.92 209.49   L 155.78 209.31   A 2.20 1.87 31.2 0 0 156.28 209.23   C 165.23 206.70 168.23 194.30 169.54 186.48   A 2.03 1.94 43.7 0 0 169.50 185.60   Q 168.73 182.69 171.03 180.99   L 171.46 182.09   Q 169.98 184.66 171.65 185.36   Q 170.29 191.32 170.61 197.13   C 170.72 199.26 170.43 200.60 169.44 202.31   A 0.39 0.39 0.0 0 0 170.07 202.75   L 172.58 199.77   A 1.67 1.67 0.0 0 1 174.12 199.20   C 179.31 200.05 183.20 194.97 185.18 190.98   Q 186.45 188.42 188.34 180.94   Q 189.74 175.43 188.81 169.32   Q 188.55 167.63 189.48 167.11   L 190.69 171.19   Q 189.90 171.72 190.12 172.88   C 190.37 174.20 191.84 174.89 191.37 176.31   Q 189.95 180.55 190.76 184.68   C 191.20 186.98 190.85 188.61 190.13 190.77   A 0.21 0.21 0.0 0 0 190.46 191.01   L 195.24 187.44   A 0.86 0.83 -55.7 0 1 195.96 187.29   Q 199.53 188.12 202.33 184.28   C 206.23 178.93 207.74 173.52 209.15 166.93   Q 209.86 163.62 208.40 161.15   A 2.11 2.08 27.8 0 1 208.12 160.27   Q 207.91 157.83 208.54 155.45   L 210.20 155.46   Z"/>
<path xmlns="http://www.w3.org/2000/svg" fill="#fae3ba" fill-opacity="0.996" d="M 207.68 158.86   Q 207.70 160.09 206.41 161.13   A 2.82 2.79 -10.3 0 0 205.54 162.37   L 201.18 174.84   A 3.10 2.87 -19.6 0 1 200.74 175.68   L 195.86 182.35   A 0.89 0.89 0.0 0 1 194.29 181.59   Q 195.17 178.37 195.52 174.65   C 195.66 173.18 196.88 171.43 198.40 170.25   Q 200.81 168.39 202.87 165.28   A 3.30 3.11 72.3 0 0 203.22 164.55   Q 204.35 161.21 206.64 158.50   A 0.59 0.59 0.0 0 1 207.68 158.86   Z"/>
<path xmlns="http://www.w3.org/2000/svg" fill="#e8b55f" fill-opacity="0.996" d="M 212.10 163.23   Q 212.53 164.72 211.58 165.12   Q 210.91 165.39 210.64 164.72   Q 209.97 163.03 211.24 162.31   Q 211.83 162.61 212.10 163.23   Z"/>
<path xmlns="http://www.w3.org/2000/svg" fill="#bb7e2c" d="M 171.03 180.99   Q 168.73 182.69 169.50 185.60   A 2.03 1.94 43.7 0 1 169.54 186.48   C 168.23 194.30 165.23 206.70 156.28 209.23   A 2.20 1.87 31.2 0 1 155.78 209.31   L 151.92 209.49   L 155.88 204.61   L 160.84 197.45   A 3.26 2.94 -20.2 0 0 161.22 196.73   L 162.61 192.84   L 167.61 183.55   A 0.32 0.32 0.0 0 0 167.41 183.09   L 166.97 182.97   A 0.51 0.51 0.0 0 0 166.40 183.20   Q 164.74 185.97 161.11 187.53   A 3.32 3.22 13.4 0 0 160.32 188.00   Q 154.90 192.41 151.75 199.44   A 0.39 0.24 76.7 0 0 151.72 199.53   L 150.69 204.60   A 0.69 0.61 -41.4 0 0 150.67 204.76   Q 150.75 208.04 149.23 210.94   L 148.88 213.28   L 141.88 216.34   A 0.32 0.32 0.0 0 0 141.96 216.95   Q 144.88 217.45 146.33 216.82   A 1.40 1.39 42.4 0 1 147.35 216.78   Q 148.85 217.32 150.64 217.74   Q 151.56 217.95 153.92 218.91   C 162.07 222.22 170.45 221.71 180.49 221.64   A 0.56 0.56 0.0 0 0 181.03 221.22   L 181.11 220.94   A 0.68 0.68 0.0 0 0 180.52 220.09   Q 179.58 220.00 178.90 219.55   Q 181.36 217.09 182.96 217.95   Q 181.89 217.72 181.33 217.93   Q 180.42 218.28 181.17 219.22   Q 181.91 220.14 183.48 219.89   L 184.95 222.55   A 1.50 1.50 0.0 0 0 186.25 223.33   L 198.72 223.46   A 0.13 0.13 0.0 0 1 198.85 223.61   L 198.80 223.87   A 0.08 0.08 0.0 0 1 198.74 223.93   Q 191.52 225.46 185.29 224.18   A 3.00 2.89 44.0 0 0 184.02 224.18   Q 177.45 225.56 168.75 228.04   Q 166.56 228.66 158.79 228.22   Q 158.34 227.60 157.39 227.59   A 0.53 0.53 0.0 0 0 156.85 228.11   Q 156.84 229.81 158.51 229.51   Q 160.45 231.11 161.10 231.40   Q 166.23 233.72 171.56 232.56   C 174.25 231.97 176.05 231.75 178.29 232.06   A 0.40 0.40 0.0 0 1 178.29 232.85   C 175.95 233.15 173.54 233.52 171.23 233.45   Q 166.22 233.30 161.21 233.17   L 160.28 233.15   Q 155.81 233.91 151.39 235.18   Q 148.43 236.03 140.86 235.38   Q 135.29 234.90 130.29 231.45   Q 129.76 231.08 127.59 228.58   Q 125.40 226.06 121.24 226.61   C 107.44 228.42 93.99 232.52 80.09 233.47   Q 71.74 234.05 69.73 234.13   Q 50.94 234.93 33.26 231.51   Q 30.85 231.04 29.40 229.48   A 1.16 1.11 27.2 0 1 29.10 228.60   Q 29.34 226.14 32.28 224.82   L 32.37 227.68   A 1.94 1.93 -88.1 0 0 34.10 229.54   Q 36.34 229.77 48.07 231.09   Q 55.45 231.93 61.95 231.75   C 74.60 231.40 85.92 230.96 97.93 228.15   Q 107.99 225.80 116.30 223.43   A 3.19 3.18 38.0 0 1 117.30 223.31   Q 121.77 223.49 124.93 221.97   A 2.36 1.96 -30.0 0 0 126.09 218.84   Q 125.49 218.03 124.49 217.93   Q 123.80 217.87 123.66 217.48   Q 123.54 217.11 123.66 216.47   L 125.70 214.89   Q 127.58 214.96 128.64 213.07   A 0.39 0.39 0.0 0 1 129.37 213.26   L 129.33 215.20   L 129.39 217.88   A 0.43 0.42 80.8 0 0 129.94 218.28   Q 130.82 218.01 131.54 216.67   Q 136.09 217.97 139.74 215.23   Q 144.29 211.84 145.97 207.98   Q 147.75 203.89 149.40 199.28   A 3.35 3.33 -34.9 0 0 149.59 198.23   Q 149.67 194.90 150.80 191.59   A 0.44 0.44 0.0 0 1 151.62 191.55   L 151.94 192.26   L 151.92 194.58   A 0.43 0.43 0.0 0 0 152.73 194.79   L 155.75 189.44   Q 156.76 188.63 157.75 187.46   C 159.34 185.58 161.33 185.00 162.75 183.12   C 164.07 181.35 165.43 181.02 166.81 179.69   A 4.39 4.09 85.2 0 0 167.50 178.81   Q 172.28 170.71 177.60 164.36   Q 178.32 163.49 179.48 163.51   A 0.29 0.29 0.0 0 1 179.71 163.96   Q 175.68 169.73 170.82 176.34   Q 169.63 177.96 171.03 180.99   Z   M 156.71 230.36   Q 155.69 229.95 155.20 229.32   C 147.95 220.14 138.95 215.40 127.88 222.00   A 0.68 0.67 41.5 0 0 127.96 223.19   L 141.50 229.18   A 10.04 9.98 59.0 0 0 144.80 230.01   L 156.58 230.92   A 0.29 0.29 0.0 0 0 156.71 230.36   Z"/>
<path xmlns="http://www.w3.org/2000/svg" fill="#e8b55f" fill-opacity="0.996" d="M 250.72 178.27   Q 249.48 176.37 251.26 174.46   Q 260.67 173.04 269.44 167.45   Q 270.22 166.96 270.35 167.00   A 0.85 0.84 -51.1 0 1 270.51 168.54   Q 267.45 170.30 265.05 172.21   A 1.44 1.44 0.0 0 1 264.70 172.42   L 250.72 178.27   Z"/>
<path xmlns="http://www.w3.org/2000/svg" fill="#fae3ba" fill-opacity="0.996" d="M 178.84 184.15   A 1.36 1.33 -69.8 0 0 180.81 183.21   C 181.46 180.01 182.78 178.22 183.77 174.95   Q 184.43 172.79 186.44 171.11   A 0.26 0.26 0.0 0 1 186.84 171.43   Q 183.37 177.90 181.78 185.75   Q 181.62 186.54 180.22 189.05   A 1.40 1.38 -82.5 0 1 179.36 189.72   C 177.39 190.23 176.16 193.40 175.33 194.43   A 0.60 0.60 0.0 0 1 174.28 193.91   L 176.46 185.66   A 2.59 2.59 0.0 0 1 178.25 183.82   Q 178.27 183.82 178.84 184.15   Z"/>
<path xmlns="http://www.w3.org/2000/svg" fill="#fae3ba" fill-opacity="0.996" d="M 155.75 189.44   L 152.73 194.79   A 0.43 0.43 0.0 0 1 151.92 194.58   L 151.94 192.26   Q 152.39 191.33 151.68 190.46   Q 150.97 189.60 150.55 188.80   Q 155.20 181.09 161.18 174.33   A 0.30 0.30 0.0 0 1 161.69 174.46   Q 161.85 175.19 161.38 175.89   Q 156.60 182.89 155.25 184.59   A 4.48 4.37 -15.7 0 0 154.51 185.87   Q 153.90 187.45 152.65 189.31   A 1.56 1.53 53.6 0 0 152.46 190.63   L 152.72 191.49   A 0.29 0.29 0.0 0 0 153.27 191.52   Q 154.09 189.66 155.75 189.44   Z"/>
<path xmlns="http://www.w3.org/2000/svg" fill="#e8b55f" fill-opacity="0.996" d="M 235.20 174.50   L 245.34 177.15   A 0.75 0.70 25.7 0 1 245.78 178.28   L 245.59 178.47   A 2.30 2.30 0.0 0 1 243.76 179.17   L 239.77 178.86   A 3.11 3.01 -49.2 0 0 238.76 178.95   L 225.29 182.66   Q 223.92 181.73 220.94 182.32   A 0.50 0.49 64.3 0 1 220.46 182.15   Q 220.14 181.74 220.58 181.15   A 0.80 0.76 -75.1 0 1 221.07 180.85   L 225.19 180.23   A 0.89 0.89 0.0 0 0 225.23 178.47   Q 223.06 178.03 219.32 178.75   C 217.21 179.16 216.62 180.53 216.66 182.31   A 0.69 0.67 2.4 0 0 217.28 182.97   L 221.90 183.41   L 210.16 183.94   Q 208.44 184.01 207.35 185.39   A 0.47 0.46 -60.6 0 1 206.83 185.54   L 206.47 185.42   A 0.24 0.24 0.0 0 1 206.35 185.07   Q 207.34 183.58 207.66 183.38   Q 210.32 181.66 213.52 178.79   A 4.32 4.07 6.9 0 1 214.17 178.31   Q 223.90 172.52 235.20 174.50   Z"/>
<path xmlns="http://www.w3.org/2000/svg" fill="#fae3ba" fill-opacity="0.996" d="M 225.29 182.66   Q 223.27 183.89 221.90 183.41   L 217.28 182.97   A 0.69 0.67 2.4 0 1 216.66 182.31   C 216.62 180.53 217.21 179.16 219.32 178.75   Q 223.06 178.03 225.23 178.47   A 0.89 0.89 0.0 0 1 225.19 180.23   L 221.07 180.85   A 0.80 0.76 -75.1 0 0 220.58 181.15   Q 220.14 181.74 220.46 182.15   A 0.50 0.49 64.3 0 0 220.94 182.32   Q 223.92 181.73 225.29 182.66   Z"/>
<path xmlns="http://www.w3.org/2000/svg" fill="#fae3ba" fill-opacity="0.996" d="M 171.46 182.09   Q 171.84 182.64 172.38 182.79   Q 172.56 184.54 171.65 185.36   Q 169.98 184.66 171.46 182.09   Z"/>
<path xmlns="http://www.w3.org/2000/svg" fill="#e8b55f" fill-opacity="0.996" d="M 162.61 192.84   Q 162.31 192.11 161.85 191.95   Q 161.27 191.73 160.86 192.40   C 159.45 194.69 157.15 196.05 156.00 198.39   Q 154.44 201.58 155.88 204.61   L 151.92 209.49   Q 151.14 210.75 149.84 211.60   A 0.40 0.40 0.0 0 1 149.22 211.28   Q 149.21 211.13 149.23 210.94   Q 150.75 208.04 150.67 204.76   A 0.69 0.61 -41.4 0 1 150.69 204.60   L 151.72 199.53   A 0.39 0.24 76.7 0 1 151.75 199.44   Q 154.90 192.41 160.32 188.00   A 3.32 3.22 13.4 0 1 161.11 187.53   Q 164.74 185.97 166.40 183.20   A 0.51 0.51 0.0 0 1 166.97 182.97   L 167.41 183.09   A 0.32 0.32 0.0 0 1 167.61 183.55   L 162.61 192.84   Z"/>
<path xmlns="http://www.w3.org/2000/svg" fill="#e8b55f" fill-opacity="0.996" d="M 225.66 193.43   Q 226.76 193.89 227.16 194.59   A 1.07 1.07 0.0 0 1 226.14 196.18   Q 220.93 195.73 216.75 196.86   Q 212.73 197.94 205.33 196.87   Q 206.93 196.26 208.02 194.08   A 1.52 1.51 -70.9 0 0 206.97 191.91   Q 201.38 190.78 198.19 194.28   A 3.32 3.32 0.0 0 1 196.74 195.21   L 195.11 195.71   A 0.32 0.32 0.0 0 0 195.05 196.30   L 195.54 196.58   L 192.29 196.87   Q 190.04 195.78 187.35 196.96   C 186.91 197.15 186.19 197.21 185.80 197.12   A 0.28 0.27 35.1 0 1 185.71 196.62   C 188.40 194.88 190.80 192.53 193.78 190.82   C 204.95 184.42 214.81 189.42 225.66 193.43   Z"/>
<path xmlns="http://www.w3.org/2000/svg" fill="#c88e37" d="M 150.55 188.80   Q 150.97 189.60 151.68 190.46   Q 152.39 191.33 151.94 192.26   L 151.62 191.55   A 0.44 0.44 0.0 0 0 150.80 191.59   Q 149.67 194.90 149.59 198.23   A 3.35 3.33 -34.9 0 1 149.40 199.28   Q 147.75 203.89 145.97 207.98   Q 144.29 211.84 139.74 215.23   Q 136.09 217.97 131.54 216.67   L 135.78 212.32   C 139.79 209.64 141.27 204.91 143.97 201.37   Q 145.15 199.82 145.84 198.10   A 0.72 0.72 0.0 0 0 145.50 197.19   L 145.48 197.18   A 0.76 0.75 29.2 0 0 144.51 197.45   Q 142.64 200.49 137.74 205.24   Q 136.10 206.83 135.88 209.89   L 133.50 207.41   A 0.38 0.38 0.0 0 0 132.92 207.45   Q 130.31 211.04 129.33 215.20   L 129.37 213.26   A 0.39 0.39 0.0 0 0 128.64 213.07   Q 127.58 214.96 125.70 214.89   Q 127.84 212.89 128.14 211.86   Q 129.72 206.52 132.74 202.98   Q 139.87 194.62 150.55 188.80   Z"/>
<path xmlns="http://www.w3.org/2000/svg" fill="#c88e37" d="M 234.96 197.36   L 234.02 197.41   L 230.10 197.66   A 2.33 2.31 29.7 0 0 229.21 197.90   Q 221.55 201.64 213.54 204.51   Q 211.42 205.26 209.22 205.52   Q 208.76 205.45 208.29 205.54   Q 206.91 205.36 205.80 204.81   L 202.67 202.70   A 1.94 1.91 -23.7 0 0 201.83 202.38   C 198.26 201.91 192.73 201.46 192.29 196.87   L 195.54 196.58   L 205.33 196.87   Q 212.73 197.94 216.75 196.86   Q 220.93 195.73 226.14 196.18   A 1.07 1.07 0.0 0 0 227.16 194.59   Q 226.76 193.89 225.66 193.43   Q 226.33 193.09 225.99 192.58   Q 227.88 192.40 226.30 191.92   L 231.52 194.53   A 2.86 2.74 -31.8 0 0 232.89 194.82   Q 244.95 194.22 256.41 190.38   A 0.34 0.34 0.0 0 1 256.84 190.61   L 256.92 190.86   A 0.21 0.19 69.6 0 1 256.82 191.10   L 254.06 192.38   A 6.47 5.94 -61.5 0 1 252.89 192.78   C 246.90 194.19 241.60 197.32 234.96 197.36   Z"/>
<path xmlns="http://www.w3.org/2000/svg" fill="#fae3ba" fill-opacity="0.996" d="M 205.33 196.87   L 195.54 196.58   L 195.05 196.30   A 0.32 0.32 0.0 0 1 195.11 195.71   L 196.74 195.21   A 3.32 3.32 0.0 0 0 198.19 194.28   Q 201.38 190.78 206.97 191.91   A 1.52 1.51 -70.9 0 1 208.02 194.08   Q 206.93 196.26 205.33 196.87   Z"/>
<path xmlns="http://www.w3.org/2000/svg" fill="#fae3ba" fill-opacity="0.996" d="M 162.61 192.84   L 161.22 196.73   A 3.26 2.94 -20.2 0 1 160.84 197.45   L 155.88 204.61   Q 154.44 201.58 156.00 198.39   C 157.15 196.05 159.45 194.69 160.86 192.40   Q 161.27 191.73 161.85 191.95   Q 162.31 192.11 162.61 192.84   Z"/>
<path xmlns="http://www.w3.org/2000/svg" fill="#fae3ba" fill-opacity="0.996" d="M 135.78 212.32   Q 135.37 211.23 135.88 209.89   Q 136.10 206.83 137.74 205.24   Q 142.64 200.49 144.51 197.45   A 0.76 0.75 29.2 0 1 145.48 197.18   L 145.50 197.19   A 0.72 0.72 0.0 0 1 145.84 198.10   Q 145.15 199.82 143.97 201.37   C 141.27 204.91 139.79 209.64 135.78 212.32   Z"/>
<path xmlns="http://www.w3.org/2000/svg" fill="#a76c4a" fill-opacity="0.996" d="M 234.96 197.36   L 234.02 197.41   L 234.96 197.36   Z"/>
<path xmlns="http://www.w3.org/2000/svg" fill="#e8b55f" fill-opacity="0.996" d="M 202.83 207.70   Q 204.83 207.94 205.75 208.99   A 0.57 0.57 0.0 0 1 205.30 209.94   Q 200.50 209.71 196.75 210.20   Q 191.73 210.86 188.24 210.52   Q 179.57 209.67 173.12 207.82   A 4.04 3.97 51.5 0 0 171.90 207.67   L 168.69 207.77   L 166.93 206.86   A 0.34 0.34 0.0 0 1 166.89 206.28   Q 172.70 202.24 177.65 200.59   Q 178.88 200.18 185.65 200.05   A 2.31 2.27 54.2 0 1 186.41 200.18   L 192.75 202.39   A 21.65 21.33 68.9 0 1 196.16 203.93   L 202.83 207.70   Z   M 188.86 206.56   A 0.59 0.59 0.0 0 0 189.19 205.48   Q 185.89 203.35 181.21 203.20   A 2.41 2.41 0.0 0 0 178.87 204.76   L 178.86 204.79   A 1.20 1.19 10.0 0 0 179.97 206.37   L 188.86 206.56   Z"/>
<path xmlns="http://www.w3.org/2000/svg" fill="#fae3ba" fill-opacity="0.996" d="M 188.86 206.56   L 179.97 206.37   A 1.20 1.19 10.0 0 1 178.86 204.79   L 178.87 204.76   A 2.41 2.41 0.0 0 1 181.21 203.20   Q 185.89 203.35 189.19 205.48   A 0.59 0.59 0.0 0 1 188.86 206.56   Z"/>
<path xmlns="http://www.w3.org/2000/svg" fill="#bb7e2c" d="M 205.14 205.37   L 209.96 208.90   L 209.15 211.09   Q 203.11 213.60 197.33 216.36   Q 192.66 218.60 185.00 218.47   L 179.51 215.10   A 3.35 3.35 0.0 0 0 177.73 214.61   C 176.25 214.61 175.26 214.38 174.09 213.19   Q 171.40 210.43 168.69 207.77   L 171.90 207.67   A 4.04 3.97 51.5 0 1 173.12 207.82   Q 179.57 209.67 188.24 210.52   Q 191.73 210.86 196.75 210.20   Q 200.50 209.71 205.30 209.94   A 0.57 0.57 0.0 0 0 205.75 208.99   Q 204.83 207.94 202.83 207.70   L 203.80 207.54   A 0.49 0.48 68.4 0 0 204.12 206.79   Q 203.84 206.37 203.73 205.84   Q 203.60 205.20 204.23 204.89   Q 204.73 204.66 205.14 205.37   Z"/>
<path xmlns="http://www.w3.org/2000/svg" fill="#744227" d="M 209.22 205.52   Q 208.93 205.80 208.29 205.54   Q 208.76 205.45 209.22 205.52   Z"/>
<path xmlns="http://www.w3.org/2000/svg" fill="#e8b55f" fill-opacity="0.996" d="M 135.88 209.89   Q 135.37 211.23 135.78 212.32   L 131.54 216.67   Q 130.82 218.01 129.94 218.28   A 0.43 0.42 80.8 0 1 129.39 217.88   L 129.33 215.20   Q 130.31 211.04 132.92 207.45   A 0.38 0.38 0.0 0 1 133.50 207.41   L 135.88 209.89   Z"/>
<path xmlns="http://www.w3.org/2000/svg" fill="#e8b55f" fill-opacity="0.996" d="M 213.24 212.16   Q 212.66 211.96 212.11 212.22   Q 210.31 211.12 209.15 211.09   L 209.96 208.90   Q 209.50 210.57 212.48 210.52   Q 213.97 210.50 216.02 209.92   Q 223.91 207.70 231.86 208.00   A 0.13 0.12 -54.9 0 1 231.90 208.24   C 226.09 210.70 219.40 211.12 213.24 212.16   Z"/>
<path xmlns="http://www.w3.org/2000/svg" fill="#e8b55f" fill-opacity="0.996" d="M 178.90 219.55   Q 179.58 220.00 180.52 220.09   A 0.68 0.68 0.0 0 1 181.11 220.94   L 181.03 221.22   A 0.56 0.56 0.0 0 1 180.49 221.64   C 170.45 221.71 162.07 222.22 153.92 218.91   Q 151.56 217.95 150.64 217.74   Q 148.85 217.32 147.35 216.78   A 1.40 1.39 42.4 0 0 146.33 216.82   Q 144.88 217.45 141.96 216.95   A 0.32 0.32 0.0 0 1 141.88 216.34   L 148.88 213.28   Q 161.64 207.32 171.01 213.51   Q 172.69 214.62 178.90 219.55   Z   M 164.8961 215.4108   A 2.85 1.82 -3.0 0 0 161.9547 213.7425   A 2.85 1.82 -3.0 0 0 159.2039 215.7092   A 2.85 1.82 -3.0 0 0 162.1453 217.3775   A 2.85 1.82 -3.0 0 0 164.8961 215.4108   Z"/>
<path xmlns="http://www.w3.org/2000/svg" fill="#c88e37" d="M 235.88 215.81   C 236.18 214.17 238.55 212.72 239.97 212.14   C 248.44 208.72 258.23 212.52 264.11 219.04   Q 264.80 219.81 264.61 220.88   Q 264.42 221.97 263.50 222.46   C 255.74 226.56 245.24 226.76 238.47 220.65   C 237.33 219.61 235.60 217.43 235.88 215.81   Z"/>
<path xmlns="http://www.w3.org/2000/svg" fill="#a76c4a" fill-opacity="0.996" d="M 213.24 212.16   Q 212.69 212.00 212.11 212.22   Q 212.66 211.96 213.24 212.16   Z"/>
<ellipse xmlns="http://www.w3.org/2000/svg" fill="#f5f1ed" cx="0.00" cy="0.00" transform="translate(162.05,215.56) rotate(-3.0)" rx="2.85" ry="1.82"/>
<path xmlns="http://www.w3.org/2000/svg" fill="#e8b55f" fill-opacity="0.996" d="M 123.66 216.47   Q 123.54 217.11 123.66 217.48   Q 123.80 217.87 124.49 217.93   Q 125.49 218.03 126.09 218.84   A 2.36 1.96 -30.0 0 1 124.93 221.97   Q 121.77 223.49 117.30 223.31   A 3.19 3.18 38.0 0 0 116.30 223.43   Q 107.99 225.80 97.93 228.15   C 85.92 230.96 74.60 231.40 61.95 231.75   Q 55.45 231.93 48.07 231.09   Q 36.34 229.77 34.10 229.54   A 1.94 1.93 -88.1 0 1 32.37 227.68   L 32.28 224.82   Q 45.72 227.01 59.37 228.08   C 65.30 228.54 71.29 228.54 77.63 227.56   Q 89.80 225.69 100.39 224.84   A 7.82 7.48 -55.7 0 0 102.27 224.44   Q 106.47 223.00 114.74 220.74   Q 119.24 219.52 123.66 216.47   Z"/>
<path xmlns="http://www.w3.org/2000/svg" fill="#c1b0aa" fill-opacity="0.996" d="M 182.96 217.95   Q 183.47 217.85 183.60 218.25   Q 183.68 218.50 183.53 218.71   Q 183.40 219.35 183.48 219.89   Q 181.91 220.14 181.17 219.22   Q 180.42 218.28 181.33 217.93   Q 181.89 217.72 182.96 217.95   Z"/>
<path xmlns="http://www.w3.org/2000/svg" fill="#e8b55f" fill-opacity="0.996" d="M 156.71 230.36   A 0.29 0.29 0.0 0 1 156.58 230.92   L 144.80 230.01   A 10.04 9.98 59.0 0 1 141.50 229.18   L 127.96 223.19   A 0.68 0.67 41.5 0 1 127.88 222.00   C 138.95 215.40 147.95 220.14 155.20 229.32   Q 155.69 229.95 156.71 230.36   Z   M 143.93 225.66   A 0.60 0.59 -18.1 0 0 144.44 224.66   Q 141.71 221.84 137.73 221.95   A 0.95 0.93 12.2 0 0 136.92 222.46   Q 136.27 223.72 136.38 224.38   A 0.62 0.61 73.1 0 0 137.23 224.84   C 139.63 223.78 141.98 225.40 143.93 225.66   Z"/>
<path xmlns="http://www.w3.org/2000/svg" fill="#fae3ba" fill-opacity="0.996" d="M 143.93 225.66   C 141.98 225.40 139.63 223.78 137.23 224.84   A 0.62 0.61 73.1 0 1 136.38 224.38   Q 136.27 223.72 136.92 222.46   A 0.95 0.93 12.2 0 1 137.73 221.95   Q 141.71 221.84 144.44 224.66   A 0.60 0.59 -18.1 0 1 143.93 225.66   Z"/>
<path xmlns="http://www.w3.org/2000/svg" fill="#c88e37" d="M 237.60 234.09   Q 237.41 235.22 236.46 235.73   C 228.40 240.02 217.48 240.26 210.41 233.92   C 209.22 232.85 207.42 230.59 207.71 228.90   C 208.01 227.19 210.48 225.67 211.96 225.07   C 220.75 221.49 230.95 225.40 237.08 232.17   Q 237.80 232.97 237.60 234.09   Z"/>
<path xmlns="http://www.w3.org/2000/svg" fill="#c1b0aa" fill-opacity="0.996" d="M 158.79 228.22   Q 158.77 229.00 158.51 229.51   Q 156.84 229.81 156.85 228.11   A 0.53 0.53 0.0 0 1 157.39 227.59   Q 158.34 227.60 158.79 228.22   Z"/>
<path xmlns="http://www.w3.org/2000/svg" fill="#985331" d="M 161.21 233.17   L 160.28 233.15   L 161.21 233.17   Z"/>
</g></g></g></g></svg>